<?xml version="1.0" encoding="UTF-8" standalone="no"?>
<!DOCTYPE svg PUBLIC "-//W3C//DTD SVG 1.1//EN" "http://www.w3.org/Graphics/SVG/1.1/DTD/svg11.dtd">
<svg width="100%" height="100%" viewBox="0 0 523 198" version="1.1" xmlns="http://www.w3.org/2000/svg" xmlns:xlink="http://www.w3.org/1999/xlink" xml:space="preserve" xmlns:serif="http://www.serif.com/" style="fill-rule:evenodd;clip-rule:evenodd;">
    <g transform="matrix(1,0,0,1,-166.014,-184.575)">
        <g transform="matrix(0,-1,-1,0,264.721,203.128)">
            <path d="M-80.154,-80.153C-124.421,-80.153 -160.306,-44.267 -160.306,0C-160.306,44.268 -124.421,80.154 -80.154,80.154C-35.887,80.154 -0.001,44.268 -0.001,0C-0.001,-44.267 -35.887,-80.153 -80.154,-80.153" style="fill:white;fill-rule:nonzero;"/>
        </g>
        <g transform="matrix(0,-1,-1,0,264.721,203.128)">
            <ellipse cx="-80.153" cy="0.001" rx="80.152" ry="80.153" style="fill:none;stroke:rgb(0,143,212);stroke-width:9px;"/>
        </g>
        <g transform="matrix(0,65.473,66.0596,0,264.356,283.505)">
            <ellipse cx="0" cy="0" rx="1" ry="1" style="fill:url(#_Radial1);"/>
        </g>
        <g transform="matrix(0,-1,-1,0,264.356,217.445)">
            <ellipse cx="-66.06" cy="-0.001" rx="65.474" ry="66.06" style="fill:none;stroke:rgb(35,31,32);stroke-width:4.5px;"/>
        </g>
        <g transform="matrix(0,-1,-1,0,263.477,211.279)">
            <path d="M-71.64,-71.637C-91.908,-71.637 -108.339,-39.564 -108.339,0.001C-108.339,39.566 -91.908,71.64 -71.64,71.64C-51.371,71.64 -34.939,39.566 -34.939,0.001C-34.939,-39.564 -51.371,-71.637 -71.64,-71.637" style="fill:white;fill-rule:nonzero;"/>
        </g>
        <g transform="matrix(1,0,0,1,216.124,285.316)">
            <path d="M0,-12.386L-4.51,-3.768L4.51,-3.768L0,-12.386ZM-6.749,0.728L-8.831,4.694L-15.958,4.694L-4.226,-17.08L4.416,-17.08L15.896,4.694L8.831,4.694L6.844,0.728L-6.749,0.728Z" style="fill:rgb(0,143,212);fill-rule:nonzero;stroke:rgb(187,189,192);stroke-width:2.03px;"/>
        </g>
        <g transform="matrix(1,0,0,1,255.831,277.871)">
            <path d="M0,2.548L0,0.423C0,-0.056 -0.011,-0.525 -0.032,-0.982C-0.054,-1.44 -0.107,-1.898 -0.192,-2.355C-0.297,-2.813 -0.476,-3.178 -0.729,-3.451C-0.981,-3.723 -1.275,-3.93 -1.611,-4.071C-1.948,-4.213 -2.311,-4.306 -2.699,-4.349C-3.088,-4.392 -3.472,-4.426 -3.85,-4.448C-4.481,-4.491 -5.112,-4.513 -5.742,-4.513L-7.635,-4.513C-8.539,-4.513 -9.443,-4.501 -10.347,-4.48C-11.25,-4.457 -12.144,-4.39 -13.027,-4.279C-13.7,-4.214 -14.226,-4.05 -14.604,-3.788C-14.982,-3.527 -15.266,-3.205 -15.456,-2.824C-15.645,-2.442 -15.76,-2.007 -15.802,-1.516C-15.844,-1.026 -15.865,-0.507 -15.865,0.037L-15.865,1.802C-15.865,2.784 -15.833,3.612 -15.771,4.288C-15.708,4.964 -15.518,5.508 -15.203,5.923C-14.887,6.337 -14.404,6.631 -13.752,6.806C-13.1,6.98 -12.185,7.067 -11.007,7.067C-9.808,7.067 -8.631,7.057 -7.474,7.037C-6.317,7.017 -5.139,6.987 -3.94,6.947C-3.604,6.923 -3.278,6.894 -2.962,6.858C-2.647,6.823 -2.332,6.758 -2.016,6.664L-8.828,2.777L-6.179,-1.565L0,2.548ZM6.659,12.211L4.167,10.448C3.095,11.21 1.965,11.694 0.777,11.901C-0.41,12.109 -1.635,12.227 -2.896,12.259C-4.494,12.34 -6.082,12.38 -7.658,12.38L-12.673,12.38C-13.325,12.38 -14.019,12.368 -14.754,12.347C-15.49,12.325 -16.221,12.244 -16.946,12.102C-17.671,11.961 -18.354,11.737 -18.996,11.432C-19.637,11.128 -20.199,10.704 -20.683,10.159C-21.062,9.724 -21.35,9.239 -21.55,8.706C-21.75,8.172 -21.902,7.618 -22.007,7.041C-22.113,6.464 -22.175,5.877 -22.196,5.277C-22.217,4.679 -22.238,4.107 -22.259,3.563C-22.284,3.128 -22.302,2.681 -22.313,2.224C-22.326,1.767 -22.332,1.311 -22.332,0.852C-22.332,-0.017 -22.311,-0.889 -22.269,-1.76C-22.227,-2.63 -22.142,-3.501 -22.016,-4.371C-21.827,-5.591 -21.407,-6.555 -20.754,-7.262C-20.103,-7.97 -19.325,-8.503 -18.42,-8.862C-17.517,-9.221 -16.544,-9.455 -15.503,-9.564C-14.462,-9.673 -13.458,-9.738 -12.49,-9.76C-11.691,-9.784 -10.887,-9.802 -10.078,-9.814C-9.268,-9.826 -8.464,-9.832 -7.665,-9.832C-6.382,-9.832 -5.1,-9.821 -3.817,-9.8C-2.534,-9.777 -1.262,-9.702 0,-9.571C2.057,-9.353 3.579,-8.717 4.566,-7.66C5.553,-6.604 6.13,-4.999 6.298,-2.844C6.366,-2.234 6.41,-1.623 6.433,-1.015C6.455,-0.405 6.466,0.205 6.466,0.814C6.466,1.728 6.451,2.643 6.419,3.557C6.388,4.472 6.309,5.386 6.183,6.3L8.898,7.836L6.659,12.211Z" style="fill:rgb(0,143,212);fill-rule:nonzero;stroke:rgb(187,189,192);stroke-width:2.03px;"/>
        </g>
        <g transform="matrix(1,0,0,1,293.829,290.273)">
            <path d="M0,-22L0,-8.322C0,-6.494 -0.257,-5.03 -0.772,-3.932C-1.288,-2.833 -2.007,-1.99 -2.932,-1.402C-3.857,-0.815 -4.96,-0.435 -6.242,-0.26C-7.524,-0.086 -8.943,0 -10.499,0C-11.381,0 -12.254,-0.003 -13.115,-0.011C-13.977,-0.02 -14.85,-0.023 -15.732,-0.023C-17.393,-0.023 -18.917,-0.083 -20.304,-0.203C-21.691,-0.323 -22.884,-0.661 -23.882,-1.216C-24.88,-1.772 -25.653,-2.628 -26.2,-3.782C-26.746,-4.937 -27.019,-6.56 -27.019,-8.648L-27.019,-22L-20.625,-22L-20.625,-10.607C-20.583,-9.584 -20.52,-8.741 -20.436,-8.077C-20.352,-7.413 -20.163,-6.886 -19.868,-6.494C-19.574,-6.102 -19.127,-5.825 -18.529,-5.661C-17.93,-5.498 -17.105,-5.406 -16.055,-5.384L-13.187,-5.352L-10.539,-5.384C-9.636,-5.384 -8.921,-5.455 -8.396,-5.597C-7.871,-5.738 -7.467,-5.977 -7.183,-6.314C-6.899,-6.651 -6.71,-7.092 -6.616,-7.637C-6.521,-8.181 -6.463,-8.855 -6.442,-9.661L-6.442,-22L0,-22Z" style="fill:rgb(0,143,212);fill-rule:nonzero;stroke:rgb(187,189,192);stroke-width:2.03px;"/>
        </g>
        <g transform="matrix(1,0,0,1,311.086,285.316)">
            <path d="M0,-12.386L-4.51,-3.768L4.51,-3.768L0,-12.386ZM-6.749,0.728L-8.831,4.694L-15.958,4.694L-4.226,-17.08L4.415,-17.08L15.896,4.694L8.831,4.694L6.844,0.728L-6.749,0.728Z" style="fill:rgb(0,143,212);fill-rule:nonzero;stroke:rgb(187,189,192);stroke-width:2.03px;"/>
        </g>
        <g transform="matrix(1,0,0,1,395.41,268.231)">
            <path d="M0,21.779L-6.395,21.779L-6.395,5.457L-15.793,5.457L-15.793,0L9.368,0L9.368,5.457L0,5.457L0,21.779Z" style="fill:rgb(35,31,32);fill-rule:nonzero;stroke:rgb(157,159,162);stroke-width:2.03px;"/>
        </g>
        <g transform="matrix(1,0,0,1,424.455,279.096)">
            <path d="M-9.682,0.049L0.82,0.049C1.576,0.049 2.17,0.005 2.602,-0.082C3.033,-0.169 3.359,-0.327 3.58,-0.556C3.801,-0.785 3.938,-1.096 3.99,-1.488C4.043,-1.881 4.068,-2.382 4.068,-2.993C4.068,-3.275 4.059,-3.543 4.037,-3.794C4.016,-4.045 3.963,-4.273 3.879,-4.48C3.795,-4.687 3.668,-4.868 3.5,-5.019C3.332,-5.173 3.102,-5.293 2.807,-5.38C2.512,-5.468 2.207,-5.521 1.893,-5.544C1.576,-5.565 1.271,-5.576 0.979,-5.576L-9.682,-5.576L-9.682,0.049ZM-16.076,-10.865L3.516,-10.865C4.758,-10.865 5.818,-10.75 6.703,-10.521C7.586,-10.293 8.311,-9.911 8.879,-9.378C9.447,-8.845 9.867,-8.137 10.141,-7.255C10.414,-6.372 10.551,-5.278 10.551,-3.972C10.551,-3.209 10.504,-2.435 10.408,-1.652C10.314,-0.868 10.066,-0.149 9.668,0.504C9.457,0.831 9.209,1.098 8.926,1.305C8.643,1.511 8.342,1.692 8.027,1.843C7.711,1.997 7.381,2.127 7.033,2.236C6.686,2.344 6.346,2.453 6.01,2.562C6.682,2.65 7.279,2.775 7.805,2.937C8.33,3.101 8.775,3.34 9.145,3.655C9.512,3.971 9.795,4.373 9.994,4.862C10.193,5.352 10.293,5.977 10.293,6.738L10.293,10.914L3.803,10.914L3.803,8.826C3.803,8.24 3.783,7.724 3.74,7.278C3.697,6.832 3.588,6.468 3.408,6.185C3.229,5.903 2.955,5.691 2.588,5.55C2.219,5.408 1.697,5.337 1.023,5.337L-9.682,5.337L-9.682,10.914L-16.076,10.914L-16.076,-10.865Z" style="fill:rgb(35,31,32);fill-rule:nonzero;stroke:rgb(157,159,162);stroke-width:2.03px;"/>
        </g>
        <g transform="matrix(1,0,0,1,444.43,278.522)">
            <path d="M0,1.212C0,2.108 0.031,2.872 0.094,3.504C0.156,4.137 0.318,4.661 0.582,5.076C0.846,5.49 1.25,5.796 1.795,5.993C2.342,6.189 3.086,6.297 4.031,6.319C4.6,6.368 5.172,6.392 5.748,6.392L7.467,6.392C8.014,6.392 8.559,6.386 9.105,6.376C9.65,6.365 10.197,6.359 10.742,6.359C11.479,6.359 12.15,6.332 12.76,6.277C13.369,6.223 13.895,6.081 14.336,5.852C14.777,5.623 15.123,5.267 15.375,4.786C15.627,4.306 15.773,3.629 15.816,2.756C15.84,2.254 15.859,1.762 15.871,1.282C15.883,0.802 15.889,0.311 15.889,-0.192C15.889,-0.519 15.883,-0.885 15.871,-1.289C15.861,-1.694 15.826,-2.092 15.762,-2.485C15.699,-2.877 15.605,-3.244 15.479,-3.582C15.352,-3.92 15.174,-4.199 14.941,-4.417C14.752,-4.592 14.512,-4.728 14.219,-4.827C13.924,-4.925 13.604,-5.002 13.256,-5.056C12.91,-5.111 12.551,-5.143 12.184,-5.154C11.816,-5.165 11.475,-5.171 11.16,-5.171L7.975,-5.171C6.926,-5.171 5.865,-5.16 4.791,-5.139C4.266,-5.116 3.742,-5.095 3.215,-5.073C2.691,-5.051 2.213,-4.953 1.781,-4.778C1.352,-4.604 0.988,-4.325 0.695,-3.943C0.4,-3.561 0.201,-2.989 0.096,-2.225C0.053,-1.788 0.025,-1.363 0.016,-0.949C0.004,-0.534 0,-0.108 0,0.329L0,1.212ZM-6.467,0.297C-6.467,-1.836 -6.373,-3.588 -6.184,-4.959C-5.994,-6.33 -5.574,-7.413 -4.922,-8.208C-4.271,-9.002 -3.318,-9.562 -2.068,-9.889C-0.818,-10.215 0.859,-10.39 2.961,-10.412L7.502,-10.516L12.609,-10.483C14.439,-10.483 15.975,-10.348 17.215,-10.076C18.455,-9.804 19.459,-9.314 20.227,-8.606C20.994,-7.898 21.539,-6.92 21.865,-5.668C22.191,-4.416 22.355,-2.811 22.355,-0.854L22.355,0.191C22.355,1.562 22.328,2.792 22.275,3.88C22.223,4.968 22.092,5.926 21.881,6.753C21.672,7.58 21.355,8.287 20.938,8.875C20.516,9.462 19.938,9.946 19.203,10.327C18.467,10.708 17.547,11.002 16.445,11.209C15.34,11.415 14,11.54 12.424,11.584L7.602,11.692C7.266,11.716 6.928,11.728 6.594,11.728L5.584,11.728C4.85,11.728 4.123,11.711 3.408,11.678C2.695,11.643 1.969,11.604 1.234,11.56C0.078,11.473 -0.963,11.293 -1.887,11.021C-2.813,10.75 -3.596,10.336 -4.236,9.78C-4.877,9.226 -5.381,8.502 -5.75,7.609C-6.117,6.717 -6.332,5.619 -6.395,4.312C-6.443,3.638 -6.467,2.968 -6.467,2.304L-6.467,0.297Z" style="fill:rgb(35,31,32);fill-rule:nonzero;stroke:rgb(157,159,162);stroke-width:2.03px;"/>
        </g>
        <g transform="matrix(1,0,0,1,498.81,268.236)">
            <path d="M0,21.774L-10.184,21.774L-22.859,5.42L-22.859,21.774L-28.893,21.774L-28.893,0L-18.709,0L-6.033,16.322L-6.033,0L0,0L0,21.774Z" style="fill:rgb(35,31,32);fill-rule:nonzero;stroke:rgb(157,159,162);stroke-width:2.03px;"/>
        </g>
        <g transform="matrix(-1,0,0,1,1014.97,-53.754)">
            <rect x="504.287" y="321.99" width="6.393" height="21.774" style="fill:rgb(35,31,32);stroke:rgb(157,159,162);stroke-width:2.03px;"/>
        </g>
        <g transform="matrix(1,0,0,1,540.773,276.565)">
            <path d="M0,5.158C0,5.31 0.006,5.463 0.016,5.615C0.027,5.768 0.031,5.93 0.031,6.105C0.031,7.628 -0.088,8.856 -0.33,9.789C-0.572,10.722 -0.994,11.461 -1.592,12.003C-2.191,12.545 -2.996,12.925 -4.006,13.142C-5.016,13.359 -6.297,13.499 -7.854,13.565C-9.494,13.645 -11.123,13.685 -12.742,13.685L-16.715,13.619C-18.063,13.598 -19.313,13.537 -20.469,13.44C-21.625,13.342 -22.646,13.07 -23.527,12.623C-24.41,12.177 -25.127,11.481 -25.674,10.533C-26.221,9.587 -26.557,8.264 -26.682,6.566C-26.811,5.02 -26.875,3.496 -26.875,1.994C-26.875,0.405 -26.791,-1.005 -26.623,-2.235C-26.455,-3.465 -26.096,-4.51 -25.549,-5.37C-25.002,-6.23 -24.225,-6.911 -23.215,-7.411C-22.205,-7.911 -20.859,-8.228 -19.176,-8.359C-18.166,-8.448 -17.168,-8.499 -16.18,-8.509C-15.191,-8.521 -14.191,-8.527 -13.182,-8.527C-11.857,-8.527 -10.543,-8.515 -9.238,-8.494C-7.934,-8.472 -6.619,-8.384 -5.295,-8.233C-4.201,-8.102 -3.324,-7.818 -2.66,-7.383C-1.998,-6.947 -1.494,-6.391 -1.146,-5.716C-0.799,-5.04 -0.564,-4.272 -0.438,-3.412C-0.311,-2.551 -0.238,-1.632 -0.217,-0.653L-6.418,-0.653C-6.418,-1.175 -6.486,-1.599 -6.623,-1.926C-6.76,-2.252 -6.955,-2.502 -7.207,-2.676C-7.459,-2.85 -7.771,-2.97 -8.139,-3.035C-8.508,-3.101 -8.924,-3.144 -9.387,-3.166C-9.682,-3.188 -9.982,-3.198 -10.287,-3.198L-12.955,-3.198L-16.207,-3.166C-17.24,-3.166 -18.039,-3.057 -18.609,-2.84C-19.176,-2.621 -19.598,-2.284 -19.871,-1.827C-20.146,-1.369 -20.303,-0.781 -20.346,-0.063C-20.387,0.657 -20.408,1.528 -20.408,2.551C-20.408,3.661 -20.371,4.582 -20.297,5.311C-20.225,6.041 -20.029,6.618 -19.713,7.042C-19.396,7.467 -18.918,7.772 -18.275,7.957C-17.633,8.142 -16.742,8.257 -15.604,8.3L-13.107,8.357C-12.561,8.357 -12.012,8.352 -11.465,8.341C-10.916,8.329 -10.369,8.325 -9.822,8.325C-9.273,8.325 -8.777,8.297 -8.336,8.242C-7.893,8.188 -7.52,8.058 -7.213,7.851C-6.908,7.644 -6.67,7.329 -6.502,6.904C-6.334,6.48 -6.25,5.897 -6.25,5.158L0,5.158Z" style="fill:rgb(35,31,32);fill-rule:nonzero;stroke:rgb(157,159,162);stroke-width:2.03px;"/>
        </g>
        <g transform="matrix(1,0,0,1,551.824,275.158)">
            <path d="M0,7.902C0.016,7.989 0.023,8.109 0.023,8.261C0.023,8.762 0.129,9.142 0.34,9.403C0.549,9.665 0.813,9.86 1.127,9.991C1.443,10.122 1.795,10.198 2.184,10.219C2.572,10.242 2.947,10.263 3.305,10.285C3.809,10.285 4.313,10.289 4.818,10.297C5.322,10.305 5.828,10.309 6.332,10.309C7.047,10.309 7.756,10.299 8.461,10.279C9.164,10.258 9.885,10.228 10.621,10.189C10.979,10.167 11.324,10.145 11.66,10.123C11.998,10.101 12.303,10.031 12.576,9.911C12.85,9.791 13.064,9.607 13.223,9.356C13.379,9.105 13.459,8.752 13.459,8.294C13.459,7.859 13.369,7.51 13.191,7.249C13.012,6.988 12.781,6.791 12.498,6.66C12.215,6.529 11.898,6.448 11.551,6.415C11.205,6.383 10.854,6.366 10.496,6.366L9.453,6.366C7.688,6.366 5.932,6.355 4.188,6.333C2.441,6.309 0.686,6.241 -1.08,6.126C-2.109,6.061 -2.969,5.887 -3.662,5.605C-4.355,5.322 -4.908,4.921 -5.316,4.398C-5.727,3.876 -6.021,3.241 -6.197,2.491C-6.377,1.741 -6.467,0.855 -6.467,-0.167C-6.467,-0.971 -6.42,-1.71 -6.324,-2.383C-6.23,-3.057 -6.041,-3.666 -5.758,-4.209C-5.475,-4.752 -5.078,-5.214 -4.576,-5.595C-4.07,-5.975 -3.398,-6.274 -2.559,-6.491C-1.99,-6.643 -1.295,-6.762 -0.477,-6.849C0.344,-6.936 1.193,-7.001 2.078,-7.045C2.959,-7.088 3.828,-7.116 4.678,-7.127C5.529,-7.138 6.26,-7.143 6.869,-7.143L11.346,-7.078C11.998,-7.078 12.654,-7.056 13.316,-7.013C13.979,-6.969 14.619,-6.865 15.24,-6.702C15.859,-6.537 16.438,-6.282 16.973,-5.933C17.51,-5.584 17.967,-5.082 18.346,-4.429C18.701,-3.796 18.9,-3.12 18.943,-2.402C18.984,-1.682 19.018,-0.975 19.037,-0.279L12.764,-0.279C12.723,-1.106 12.48,-1.644 12.039,-1.894C11.598,-2.145 11.021,-2.292 10.307,-2.335C9.779,-2.351 9.26,-2.36 8.746,-2.36L7.217,-2.36C6.398,-2.36 5.584,-2.343 4.773,-2.311C3.965,-2.278 3.152,-2.24 2.332,-2.197C2.059,-2.174 1.781,-2.142 1.498,-2.099C1.213,-2.055 0.961,-1.974 0.74,-1.855C0.52,-1.737 0.342,-1.575 0.205,-1.369C0.068,-1.163 0,-0.898 0,-0.574C0,-0.054 0.121,0.341 0.361,0.611C0.604,0.882 0.908,1.071 1.275,1.179C1.643,1.288 2.043,1.341 2.473,1.341C2.904,1.341 3.297,1.352 3.652,1.373L7.938,1.439C8.652,1.439 9.355,1.443 10.047,1.451C10.74,1.459 11.445,1.463 12.158,1.463C13.377,1.463 14.471,1.545 15.438,1.708C16.404,1.871 17.221,2.188 17.883,2.655C18.543,3.124 19.049,3.794 19.395,4.665C19.742,5.536 19.916,6.68 19.916,8.096C19.916,9.425 19.773,10.509 19.49,11.348C19.207,12.187 18.77,12.845 18.182,13.325C17.592,13.804 16.852,14.148 15.957,14.354C15.064,14.561 14.008,14.719 12.787,14.828C11.402,14.91 10.039,14.967 8.693,14.999C7.352,15.028 5.984,15.045 4.6,15.045C3.887,15.045 3.172,15.039 2.457,15.028C1.744,15.018 1.029,14.991 0.316,14.948C-0.691,14.883 -1.605,14.78 -2.424,14.639C-3.242,14.498 -3.936,14.231 -4.504,13.84C-5.07,13.448 -5.512,12.888 -5.826,12.161C-6.141,11.432 -6.299,10.448 -6.299,9.208L-6.299,7.902L0,7.902Z" style="fill:rgb(35,31,32);fill-rule:nonzero;stroke:rgb(157,159,162);stroke-width:2.03px;"/>
        </g>
        <g transform="matrix(1,0,0,1,582.346,289.745)">
            <path d="M0,0.265C0,1.289 -0.084,2.171 -0.252,2.912C-0.42,3.653 -0.709,4.258 -1.119,4.726C-1.527,5.194 -2.074,5.537 -2.756,5.755C-3.438,5.973 -4.305,6.082 -5.355,6.082C-5.67,6.082 -5.986,6.077 -6.303,6.066C-6.617,6.056 -6.922,6.029 -7.217,5.986L-7.217,2.579C-7.111,2.601 -7.002,2.617 -6.887,2.629C-6.771,2.64 -6.66,2.645 -6.555,2.645C-5.775,2.645 -5.256,2.422 -4.994,1.977C-4.73,1.531 -4.59,0.96 -4.568,0.265L-6.334,0.265L-6.334,-5.817L0,-5.817L0,0.265Z" style="fill:rgb(35,31,32);fill-rule:nonzero;stroke:rgb(157,159,162);stroke-width:2.03px;"/>
        </g>
        <g transform="matrix(-1,0,0,1,1211.45,-53.754)">
            <rect x="602.527" y="321.99" width="6.395" height="21.774" style="fill:rgb(35,31,32);stroke:rgb(157,159,162);stroke-width:2.03px;"/>
        </g>
        <g transform="matrix(1,0,0,1,643.289,268.236)">
            <path d="M0,21.774L-10.186,21.774L-22.861,5.42L-22.861,21.774L-28.895,21.774L-28.895,0L-18.711,0L-6.035,16.322L-6.035,0L0,0L0,21.774Z" style="fill:rgb(35,31,32);fill-rule:nonzero;stroke:rgb(157,159,162);stroke-width:2.03px;"/>
        </g>
        <g transform="matrix(1,0,0,1,673.361,276.565)">
            <path d="M0,5.158C0,5.31 0.006,5.463 0.016,5.615C0.027,5.768 0.031,5.93 0.031,6.105C0.031,7.628 -0.09,8.856 -0.332,9.789C-0.572,10.722 -0.994,11.461 -1.594,12.003C-2.193,12.545 -2.996,12.925 -4.006,13.142C-5.016,13.359 -6.297,13.499 -7.854,13.565C-9.494,13.645 -11.123,13.685 -12.742,13.685L-16.717,13.619C-18.063,13.598 -19.313,13.537 -20.469,13.44C-21.627,13.342 -22.646,13.07 -23.529,12.623C-24.412,12.177 -25.127,11.481 -25.674,10.533C-26.221,9.587 -26.557,8.264 -26.684,6.566C-26.811,5.02 -26.875,3.496 -26.875,1.994C-26.875,0.405 -26.791,-1.005 -26.623,-2.235C-26.455,-3.465 -26.098,-4.51 -25.551,-5.37C-25.004,-6.23 -24.225,-6.911 -23.217,-7.411C-22.207,-7.911 -20.859,-8.228 -19.178,-8.359C-18.168,-8.448 -17.168,-8.499 -16.18,-8.509C-15.191,-8.521 -14.193,-8.527 -13.184,-8.527C-11.857,-8.527 -10.543,-8.515 -9.238,-8.494C-7.936,-8.472 -6.621,-8.384 -5.295,-8.233C-4.201,-8.102 -3.324,-7.818 -2.662,-7.383C-1.998,-6.947 -1.494,-6.391 -1.146,-5.716C-0.801,-5.04 -0.564,-4.272 -0.438,-3.412C-0.313,-2.551 -0.238,-1.632 -0.217,-0.653L-6.418,-0.653C-6.418,-1.175 -6.486,-1.599 -6.623,-1.926C-6.76,-2.252 -6.955,-2.502 -7.207,-2.676C-7.461,-2.85 -7.771,-2.97 -8.139,-3.035C-8.508,-3.101 -8.924,-3.144 -9.387,-3.166C-9.682,-3.188 -9.982,-3.198 -10.287,-3.198L-12.955,-3.198L-16.209,-3.166C-17.24,-3.166 -18.041,-3.057 -18.609,-2.84C-19.178,-2.621 -19.598,-2.284 -19.871,-1.827C-20.146,-1.369 -20.305,-0.781 -20.346,-0.063C-20.389,0.657 -20.41,1.528 -20.41,2.551C-20.41,3.661 -20.371,4.582 -20.299,5.311C-20.225,6.041 -20.029,6.618 -19.713,7.042C-19.398,7.467 -18.92,7.772 -18.275,7.957C-17.633,8.142 -16.744,8.257 -15.605,8.3L-13.107,8.357C-12.561,8.357 -12.012,8.352 -11.465,8.341C-10.918,8.329 -10.369,8.325 -9.822,8.325C-9.273,8.325 -8.777,8.297 -8.336,8.242C-7.893,8.188 -7.52,8.058 -7.213,7.851C-6.908,7.644 -6.672,7.329 -6.504,6.904C-6.334,6.48 -6.25,5.897 -6.25,5.158L0,5.158Z" style="fill:rgb(35,31,32);fill-rule:nonzero;stroke:rgb(157,159,162);stroke-width:2.03px;"/>
        </g>
        <g transform="matrix(-1,0,0,1,1361.73,-38.062)">
            <rect x="677.729" y="321.99" width="6.273" height="6.082" style="fill:rgb(35,31,32);stroke:rgb(157,159,162);stroke-width:2.03px;"/>
        </g>
        <g transform="matrix(-1,0,0,1,721.79,-51.442)">
            <rect x="357.758" y="328.788" width="6.274" height="5.866" style="fill:rgb(35,31,32);stroke:rgb(157,159,162);stroke-width:2px;"/>
        </g>
    </g>
    <defs>
        <radialGradient id="_Radial1" cx="0" cy="0" r="1" gradientUnits="userSpaceOnUse" gradientTransform="matrix(0,1,1,0,-1.02983e-06,1.02983e-06)"><stop offset="0" style="stop-color:white;stop-opacity:1"/><stop offset="0.72" style="stop-color:rgb(201,225,245);stop-opacity:1"/><stop offset="0.91" style="stop-color:rgb(84,175,226);stop-opacity:1"/><stop offset="1" style="stop-color:rgb(0,143,212);stop-opacity:1"/></radialGradient>
    </defs>
</svg>
