<?xml version="1.0" encoding="UTF-8" standalone="no"?>
<!DOCTYPE svg PUBLIC "-//W3C//DTD SVG 1.1//EN" "http://www.w3.org/Graphics/SVG/1.1/DTD/svg11.dtd">
<svg width="100%" height="100%" viewBox="0 0 560 174" version="1.1" xmlns="http://www.w3.org/2000/svg" xmlns:xlink="http://www.w3.org/1999/xlink" xml:space="preserve" xmlns:serif="http://www.serif.com/" style="fill-rule:evenodd;clip-rule:evenodd;stroke-linejoin:round;stroke-miterlimit:2;">
    <g transform="matrix(1,0,0,1,-998.908,-1565.21)">
        <g transform="matrix(4.16667,0,0,4.16667,0,0)">
            <g transform="matrix(0.70709,-0.707124,-0.707124,-0.70709,355.989,860.439)">
                <rect x="245.899" y="380.678" width="29.413" height="29.609" style="fill:rgb(46,48,146);"/>
            </g>
        </g>
        <g transform="matrix(4.16667,0,0,4.16667,0,0)">
            <g transform="matrix(0,-1,-1,0,667.306,658.765)">
                <path d="M267.037,396.937C265.195,396.937 263.703,398.429 263.703,400.269C263.703,402.111 265.195,403.603 267.037,403.603C268.877,403.603 270.37,402.111 270.37,400.269C270.37,398.429 268.877,396.937 267.037,396.937" style="fill:white;fill-rule:nonzero;"/>
            </g>
        </g>
        <g transform="matrix(4.16667,0,0,4.16667,0,0)">
            <g transform="matrix(1,0,0,1,0,0.205)">
                <path d="M254.828,386.358C254.828,386.358 256.62,386.983 256.203,388.358C255.72,389.953 252.729,400.648 252.5,401.677C252.23,402.886 251.828,405.437 254.245,405.303C256.883,405.156 265.66,405.303 265.66,405.303C265.66,405.303 267.001,404.917 267.578,402.608C267.847,401.534 268.613,397.514 268.613,397.514C268.613,397.514 268.286,396.243 266.156,396.243L260.536,396.243L262.453,388.233L264.077,386.358L254.828,386.358Z" style="fill:white;fill-rule:nonzero;"/>
            </g>
        </g>
        <g transform="matrix(4.16667,0,0,4.16667,0,0)">
            <g transform="matrix(-0.994042,0.108994,0.108994,0.994042,477.543,-17.1464)">
                <path d="M260.874,388.215C260.874,388.215 263.105,394.123 263.253,394.24C263.402,394.359 261.219,394.932 260.874,394.398C260.679,394.096 258.375,388.739 258.858,388.56C259.87,388.187 260.874,388.215 260.874,388.215" style="fill:rgb(46,48,146);fill-rule:nonzero;"/>
            </g>
        </g>
        <g transform="matrix(4.16667,0,0,4.16667,0,0)">
            <g transform="matrix(1,0,0,1,0,1.592)">
                <path d="M293.896,399.43C294.172,399.43 294.436,399.403 294.688,399.349C294.939,399.296 295.162,399.206 295.354,399.081C295.545,398.955 295.697,398.784 295.813,398.569C295.926,398.354 295.982,398.079 295.982,397.744C295.982,397.087 295.797,396.617 295.426,396.337C295.053,396.055 294.561,395.915 293.949,395.915L290.873,395.915L290.873,399.43L293.896,399.43ZM293.738,393.993C294.242,393.993 294.656,393.872 294.98,393.632C295.305,393.391 295.467,392.999 295.467,392.458C295.467,392.157 295.412,391.91 295.305,391.718C295.197,391.524 295.053,391.374 294.873,391.266C294.693,391.157 294.484,391.083 294.252,391.04C294.018,390.999 293.773,390.977 293.521,390.977L290.873,390.977L290.873,393.993L293.738,393.993ZM294.096,388.774C294.709,388.774 295.266,388.828 295.77,388.936C296.275,389.045 296.707,389.221 297.066,389.469C297.428,389.716 297.707,390.044 297.904,390.452C298.102,390.862 298.201,391.366 298.201,391.968C298.201,392.618 298.055,393.159 297.762,393.593C297.467,394.026 297.033,394.38 296.457,394.657C297.248,394.886 297.838,395.284 298.227,395.852C298.615,396.423 298.811,397.108 298.811,397.911C298.811,398.559 298.686,399.119 298.434,399.593C298.182,400.065 297.842,400.452 297.416,400.753C296.99,401.052 296.504,401.274 295.957,401.417C295.412,401.561 294.85,401.634 294.273,401.634L288.045,401.634L288.045,388.774L294.096,388.774Z" style="fill:rgb(46,48,146);fill-rule:nonzero;"/>
            </g>
        </g>
        <g transform="matrix(4.16667,0,0,4.16667,0,0)">
            <g transform="matrix(1,0,0,1,0,1.592)">
                <path d="M303.092,401.634L300.529,401.634L300.529,392.327L303.092,392.327L303.092,401.634ZM300.529,388.774L303.092,388.774L303.092,390.883L300.529,390.883L300.529,388.774Z" style="fill:rgb(46,48,146);fill-rule:nonzero;"/>
            </g>
        </g>
        <g transform="matrix(4.16667,0,0,4.16667,0,0)">
            <g transform="matrix(1,0,0,1,0,2.451)">
                <path d="M310.217,391.478L310.217,393.181L308.346,393.181L308.346,397.788C308.346,398.22 308.418,398.508 308.561,398.652C308.705,398.796 308.992,398.868 309.426,398.868C309.568,398.868 309.707,398.862 309.84,398.85C309.971,398.837 310.098,398.82 310.217,398.796L310.217,400.775C310.002,400.812 309.762,400.837 309.498,400.849C309.232,400.861 308.975,400.868 308.723,400.868C308.326,400.868 307.951,400.841 307.596,400.786C307.24,400.734 306.928,400.628 306.658,400.472C306.387,400.316 306.174,400.093 306.018,399.806C305.861,399.517 305.783,399.14 305.783,398.671L305.783,393.181L304.234,393.181L304.234,391.478L305.783,391.478L305.783,388.681L308.346,388.681L308.346,391.478L310.217,391.478Z" style="fill:rgb(46,48,146);fill-rule:nonzero;"/>
            </g>
        </g>
        <g transform="matrix(4.16667,0,0,4.16667,0,0)">
            <g transform="matrix(1,0,0,1,0,4.889)">
                <path d="M313.869,389.024L313.869,390.753L313.904,390.753C314.023,390.465 314.186,390.198 314.389,389.952C314.594,389.706 314.828,389.497 315.092,389.323C315.355,389.149 315.637,389.014 315.938,388.918C316.238,388.821 316.549,388.774 316.873,388.774C317.041,388.774 317.227,388.803 317.432,388.864L317.432,391.239C317.311,391.215 317.168,391.194 317,391.176C316.832,391.157 316.67,391.149 316.514,391.149C316.045,391.149 315.648,391.227 315.326,391.383C315.002,391.54 314.74,391.753 314.543,392.022C314.344,392.293 314.203,392.608 314.119,392.967C314.035,393.329 313.994,393.719 313.994,394.139L313.994,398.337L311.432,398.337L311.432,389.024L313.869,389.024Z" style="fill:rgb(46,48,146);fill-rule:nonzero;"/>
            </g>
        </g>
        <g transform="matrix(4.16667,0,0,4.16667,0,0)">
            <g transform="matrix(1,0,0,1,0,5.123)">
                <path d="M320.498,394.546C320.57,394.9 320.693,395.22 320.865,395.501C321.039,395.784 321.27,396.009 321.557,396.178C321.844,396.347 322.201,396.431 322.633,396.431C323.063,396.431 323.424,396.347 323.717,396.178C324.01,396.009 324.242,395.784 324.416,395.501C324.59,395.22 324.711,394.9 324.783,394.546C324.855,394.191 324.891,393.827 324.891,393.454C324.891,393.083 324.855,392.716 324.783,392.355C324.711,391.995 324.59,391.676 324.416,391.399C324.242,391.122 324.01,390.898 323.717,390.724C323.424,390.548 323.063,390.462 322.633,390.462C322.201,390.462 321.844,390.548 321.557,390.724C321.27,390.898 321.039,391.122 320.865,391.399C320.693,391.676 320.57,391.995 320.498,392.355C320.426,392.716 320.391,393.083 320.391,393.454C320.391,393.827 320.426,394.191 320.498,394.546M318.17,391.431C318.398,390.823 318.723,390.308 319.143,389.882C319.561,389.455 320.064,389.125 320.652,388.892C321.24,388.657 321.9,388.54 322.633,388.54C323.363,388.54 324.025,388.657 324.619,388.892C325.213,389.125 325.721,389.455 326.141,389.882C326.561,390.308 326.883,390.823 327.111,391.431C327.34,392.036 327.453,392.712 327.453,393.456C327.453,394.2 327.34,394.872 327.111,395.474C326.883,396.073 326.561,396.587 326.141,397.013C325.721,397.439 325.213,397.767 324.619,397.995C324.025,398.222 323.363,398.337 322.633,398.337C321.9,398.337 321.24,398.222 320.652,397.995C320.064,397.767 319.561,397.439 319.143,397.013C318.723,396.587 318.398,396.073 318.17,395.474C317.941,394.872 317.828,394.2 317.828,393.456C317.828,392.712 317.941,392.036 318.17,391.431" style="fill:rgb(46,48,146);fill-rule:nonzero;"/>
            </g>
        </g>
        <g transform="matrix(4.16667,0,0,4.16667,0,0)">
            <g transform="matrix(1,0,0,1,0,4.889)">
                <path d="M331.545,389.026L331.545,390.321L331.598,390.321C331.922,389.782 332.342,389.389 332.857,389.143C333.373,388.897 333.9,388.774 334.441,388.774C335.125,388.774 335.686,388.867 336.123,389.053C336.561,389.239 336.906,389.497 337.158,389.827C337.41,390.157 337.586,390.559 337.688,391.034C337.791,391.508 337.842,392.034 337.842,392.61L337.842,398.337L335.279,398.337L335.279,393.077C335.279,392.308 335.158,391.735 334.92,391.356C334.68,390.979 334.256,390.79 333.645,390.79C332.951,390.79 332.447,390.997 332.137,391.411C331.824,391.825 331.67,392.507 331.67,393.456L331.67,398.337L329.107,398.337L329.107,389.026L331.545,389.026Z" style="fill:rgb(46,48,146);fill-rule:nonzero;"/>
            </g>
        </g>
        <g transform="matrix(4.16667,0,0,4.16667,0,0)">
            <g transform="matrix(1,0,0,1,0,1.592)">
                <path d="M342.422,401.634L339.859,401.634L339.859,392.327L342.422,392.327L342.422,401.634ZM339.859,388.774L342.422,388.774L342.422,390.883L339.859,390.883L339.859,388.774Z" style="fill:rgb(46,48,146);fill-rule:nonzero;"/>
            </g>
        </g>
        <g transform="matrix(4.16667,0,0,4.16667,0,0)">
            <g transform="matrix(1,0,0,1,0,5.123)">
                <path d="M348.885,390.462C348.477,390.462 348.135,390.555 347.857,390.741C347.582,390.927 347.357,391.168 347.184,391.462C347.01,391.757 346.887,392.081 346.814,392.437C346.742,392.79 346.707,393.142 346.707,393.491C346.707,393.827 346.742,394.171 346.814,394.519C346.887,394.868 347.004,395.183 347.166,395.466C347.328,395.748 347.547,395.98 347.822,396.159C348.098,396.341 348.434,396.431 348.83,396.431C349.441,396.431 349.914,396.259 350.244,395.917C350.574,395.575 350.781,395.116 350.865,394.54L353.33,394.54C353.162,395.776 352.682,396.718 351.891,397.366C351.098,398.013 350.084,398.337 348.848,398.337C348.152,398.337 347.514,398.22 346.93,397.985C346.348,397.751 345.852,397.425 345.443,397.004C345.033,396.583 344.715,396.083 344.486,395.5C344.258,394.917 344.145,394.278 344.145,393.582C344.145,392.862 344.25,392.192 344.459,391.573C344.67,390.956 344.98,390.421 345.389,389.972C345.799,389.521 346.297,389.17 346.885,388.917C347.475,388.665 348.146,388.54 348.902,388.54C349.455,388.54 349.984,388.612 350.496,388.756C351.006,388.899 351.461,389.119 351.863,389.413C352.266,389.708 352.592,390.073 352.844,390.513C353.096,390.95 353.24,391.47 353.277,392.071L350.775,392.071C350.605,390.998 349.977,390.462 348.885,390.462" style="fill:rgb(46,48,146);fill-rule:nonzero;"/>
            </g>
        </g>
        <g transform="matrix(4.16667,0,0,4.16667,0,0)">
            <g transform="matrix(1,0,0,1,0,5.139)">
                <path d="M356.91,395.772C357.025,395.971 357.172,396.133 357.352,396.26C357.529,396.387 357.736,396.481 357.971,396.542C358.203,396.602 358.445,396.633 358.697,396.633C358.877,396.633 359.064,396.612 359.262,396.57C359.459,396.528 359.639,396.462 359.801,396.372C359.961,396.282 360.096,396.163 360.203,396.012C360.313,395.862 360.365,395.674 360.365,395.446C360.365,395.062 360.111,394.774 359.602,394.583C359.092,394.391 358.381,394.199 357.471,394.007C357.1,393.923 356.736,393.825 356.383,393.71C356.029,393.596 355.715,393.446 355.439,393.26C355.162,393.075 354.941,392.84 354.773,392.559C354.605,392.278 354.521,391.932 354.521,391.524C354.521,390.925 354.639,390.434 354.873,390.049C355.107,389.667 355.416,389.364 355.801,389.141C356.184,388.921 356.617,388.764 357.096,388.674C357.576,388.585 358.068,388.54 358.572,388.54C359.076,388.54 359.566,388.587 360.041,388.683C360.514,388.78 360.938,388.941 361.311,389.169C361.682,389.397 361.99,389.7 362.236,390.078C362.482,390.456 362.631,390.932 362.678,391.508L360.24,391.508C360.205,391.014 360.02,390.679 359.686,390.505C359.35,390.33 358.955,390.243 358.502,390.243C358.357,390.243 358.201,390.251 358.035,390.27C357.867,390.288 357.715,390.327 357.578,390.386C357.439,390.446 357.324,390.534 357.229,390.647C357.133,390.76 357.084,390.915 357.084,391.106C357.084,391.335 357.168,391.52 357.336,391.664C357.504,391.807 357.723,391.924 357.992,392.014C358.262,392.104 358.57,392.186 358.918,392.257C359.266,392.329 359.619,392.407 359.979,392.491C360.352,392.575 360.713,392.676 361.066,392.798C361.42,392.917 361.734,393.077 362.012,393.274C362.287,393.471 362.508,393.717 362.676,394.012C362.844,394.305 362.928,394.669 362.928,395.1C362.928,395.712 362.805,396.225 362.559,396.638C362.313,397.051 361.992,397.385 361.596,397.637C361.199,397.889 360.746,398.065 360.236,398.168C359.727,398.27 359.207,398.321 358.678,398.321C358.139,398.321 357.609,398.266 357.094,398.159C356.578,398.049 356.119,397.87 355.717,397.617C355.314,397.364 354.984,397.03 354.727,396.616C354.469,396.2 354.326,395.68 354.303,395.055L356.74,395.055C356.74,395.333 356.797,395.572 356.91,395.772" style="fill:rgb(46,48,146);fill-rule:nonzero;"/>
            </g>
        </g>
        <g transform="matrix(4.16667,0,0,4.16667,0,0)">
            <g transform="matrix(1,0,0,1,0,-7.029)">
                <path d="M369.611,399.089C369.9,399.089 370.137,399.05 370.32,398.969C370.505,398.889 370.598,398.697 370.598,398.393C370.598,398.257 370.564,398.149 370.501,398.069C370.438,397.989 370.354,397.926 370.255,397.883C370.154,397.839 370.042,397.809 369.918,397.793C369.794,397.777 369.676,397.768 369.563,397.768L368.723,397.768L368.723,399.089L369.611,399.089ZM369.619,396.987C370.252,396.987 370.738,397.1 371.079,397.324C371.419,397.549 371.59,397.932 371.59,398.477C371.59,398.71 371.555,398.908 371.487,399.073C371.419,399.237 371.324,399.371 371.205,399.475C371.084,399.579 370.944,399.659 370.784,399.716C370.624,399.771 370.451,399.807 370.268,399.823L371.611,402.018L370.568,402.018L369.346,399.87L368.723,399.87L368.723,402.018L367.723,402.018L367.723,396.987L369.619,396.987ZM366.393,400.926C366.568,401.358 366.809,401.732 367.112,402.048C367.416,402.364 367.773,402.61 368.186,402.786C368.598,402.962 369.039,403.05 369.512,403.05C369.975,403.05 370.413,402.962 370.824,402.786C371.236,402.61 371.594,402.364 371.898,402.048C372.202,401.732 372.444,401.358 372.624,400.926C372.805,400.495 372.895,400.022 372.895,399.51C372.895,398.999 372.805,398.529 372.624,398.1C372.444,397.673 372.202,397.303 371.898,396.991C371.594,396.679 371.236,396.435 370.824,396.259C370.413,396.083 369.975,395.995 369.512,395.995C369.039,395.995 368.598,396.083 368.186,396.259C367.773,396.435 367.416,396.679 367.112,396.991C366.809,397.303 366.568,397.673 366.393,398.1C366.217,398.529 366.129,398.999 366.129,399.51C366.129,400.022 366.217,400.495 366.393,400.926M365.279,397.662C365.532,397.11 365.87,396.639 366.294,396.253C366.719,395.864 367.209,395.564 367.765,395.352C368.32,395.14 368.903,395.034 369.512,395.034C370.119,395.034 370.701,395.14 371.258,395.352C371.814,395.564 372.305,395.864 372.729,396.253C373.152,396.639 373.49,397.11 373.742,397.662C373.994,398.214 374.121,398.829 374.121,399.508C374.121,400.196 373.994,400.817 373.742,401.368C373.49,401.921 373.152,402.391 372.729,402.784C372.305,403.175 371.814,403.475 371.258,403.683C370.701,403.891 370.119,403.995 369.512,403.995C368.903,403.995 368.32,403.891 367.765,403.683C367.209,403.475 366.719,403.175 366.294,402.784C365.87,402.391 365.532,401.921 365.279,401.368C365.027,400.817 364.902,400.196 364.902,399.508C364.902,398.829 365.027,398.214 365.279,397.662" style="fill:rgb(46,48,146);fill-rule:nonzero;"/>
            </g>
        </g>
    </g>
</svg>
