<?xml version="1.0" encoding="UTF-8" standalone="no"?>
<!DOCTYPE svg PUBLIC "-//W3C//DTD SVG 1.1//EN" "http://www.w3.org/Graphics/SVG/1.1/DTD/svg11.dtd">
<svg width="100%" height="100%" viewBox="0 0 4624 1061" version="1.1" xmlns="http://www.w3.org/2000/svg" xmlns:xlink="http://www.w3.org/1999/xlink" xml:space="preserve" xmlns:serif="http://www.serif.com/" style="fill-rule:evenodd;clip-rule:evenodd;stroke-linejoin:round;stroke-miterlimit:2;">
    <g transform="matrix(1,0,0,1,-446.086,-592.349)">
        <g transform="matrix(4.16667,0,0,4.16667,0,0)">
            <g transform="matrix(1,0,0,1,179.786,217.736)">
                <path d="M0,-4.261L34.244,-37.771L-1.42,-73.451L-72.725,-2.121L-1.42,69.19L35.665,31.388L0,-4.261Z" style="fill:rgb(46,48,146);fill-rule:nonzero;"/>
            </g>
        </g>
        <g transform="matrix(4.16667,0,0,4.16667,0,0)">
            <g transform="matrix(0.707121,0.707092,0.707092,-0.707121,226.426,163.934)">
                <path d="M21.402,-51.685L125.3,-51.685L124.773,51.681L21.416,52.202L21.402,-51.685Z" style="fill:rgb(46,48,146);fill-rule:nonzero;"/>
            </g>
        </g>
        <g transform="matrix(4.16667,0,0,4.16667,0,0)">
            <g transform="matrix(1,0,0,1,472.131,150.277)">
                <path d="M0,136.955L-69.828,38.113L-69.828,134.988L-87.287,134.988L-87.287,0L-79.908,0L-11.803,93.435L-11.803,0L5.655,0L5.655,136.955L0,136.955Z" style="fill:rgb(46,48,146);fill-rule:nonzero;"/>
            </g>
        </g>
        <g transform="matrix(4.16667,0,0,4.16667,0,0)">
            <g transform="matrix(1,0,0,1,514.038,236.197)">
                <path d="M0,-0.46C0,24.367 8.745,36.774 26.23,36.774C34.391,36.774 40.789,33.45 45.421,26.796C50.055,20.144 52.371,11.06 52.371,-0.46C52.371,-24.974 43.658,-37.236 26.23,-37.236C18.253,-37.236 11.887,-33.967 7.131,-27.436C2.374,-20.907 0,-11.915 0,-0.46M-18.44,-0.46C-18.44,-15.714 -14.345,-28.035 -6.147,-37.418C2.051,-46.799 12.843,-51.496 26.23,-51.496C40.355,-51.496 51.315,-46.988 59.113,-37.976C66.912,-28.961 70.814,-16.457 70.814,-0.46C70.814,15.476 66.82,28.043 58.839,37.242C50.852,46.437 39.985,51.036 26.23,51.036C12.17,51.036 1.209,46.391 -6.65,37.101C-14.512,27.814 -18.44,15.292 -18.44,-0.46" style="fill:rgb(46,48,146);fill-rule:nonzero;"/>
            </g>
        </g>
        <g transform="matrix(4.16667,0,0,4.16667,0,0)">
            <g transform="matrix(1,0,0,1,637.335,186.177)">
                <path d="M0,101.055L-4.673,101.055L-46.965,0L-27.785,0L-1.722,69.338L24.831,0L43.275,0L0,101.055Z" style="fill:rgb(46,48,146);fill-rule:nonzero;"/>
            </g>
        </g>
        <g transform="matrix(4.16667,0,0,4.16667,0,0)">
            <g transform="matrix(1,0,0,1,746.835,236.785)">
                <path d="M0,-2.049C-19.64,-2.456 -41.94,1.022 -41.94,20.251C-41.94,32.117 -34.165,37.434 -25.166,37.434C-12.071,37.434 -3.686,29.253 -0.819,20.863C-0.204,19.023 0,16.978 0,15.135L0,-2.049ZM17.591,24.751C17.591,33.345 18.004,41.733 19.023,48.481L2.861,48.481L1.227,36.003L0.615,36.003C-4.707,43.775 -15.548,50.732 -29.664,50.732C-49.71,50.732 -59.943,36.618 -59.943,22.296C-59.943,-1.64 -38.665,-14.729 -0.409,-14.527L-0.409,-16.572C-0.409,-24.756 -2.658,-39.687 -22.914,-39.483C-32.324,-39.483 -41.94,-36.827 -48.895,-32.118L-52.983,-44.19C-44.805,-49.301 -32.733,-52.781 -20.255,-52.781C10.225,-52.781 17.591,-32.118 17.591,-12.277L17.591,24.751Z" style="fill:rgb(46,48,146);fill-rule:nonzero;"/>
            </g>
        </g>
        <g transform="matrix(4.16667,0,0,4.16667,0,0)">
            <g transform="matrix(1,0,0,1,821.07,268.544)">
                <path d="M0,-101.544L0,16.722L-18.442,16.722L-18.442,-101.544L-61.472,-101.544L-61.472,-118.266L44.997,-118.266L44.997,-101.544L0,-101.544Z" style="fill:rgb(46,48,146);fill-rule:nonzero;"/>
            </g>
        </g>
        <g transform="matrix(4.16667,0,0,4.16667,0,0)">
            <g transform="matrix(1,0,0,1,901.63,272.48)">
                <path d="M0,-73.025C-7.796,-73.025 -14.33,-70.517 -19.607,-65.501C-24.644,-60.733 -27.494,-54.795 -28.168,-47.699L26.415,-47.699C26.415,-54.734 24.209,-60.606 19.789,-65.317C14.938,-70.456 8.345,-73.025 0,-73.025M42.49,-34.916L-28.66,-34.916C-28.66,-23.304 -25.505,-14.383 -19.177,-8.147C-13.593,-2.715 -6.411,0.002 2.367,0.002C12.369,0.002 20.717,-2.864 27.414,-8.605L34.778,3.934C32.072,6.624 27.928,8.948 22.345,10.905C15.34,13.471 7.546,14.753 -1.047,14.753C-13.455,14.753 -23.985,10.537 -32.642,2.11C-42.282,-7.18 -47.1,-19.669 -47.1,-35.361C-47.1,-51.663 -42.156,-64.735 -32.262,-74.582C-23.417,-83.379 -12.936,-87.778 -0.829,-87.778C13.239,-87.778 24.27,-83.817 32.26,-75.898C40.001,-68.284 43.877,-58.184 43.877,-45.599C43.877,-41.729 43.411,-38.168 42.49,-34.916" style="fill:rgb(46,48,146);fill-rule:nonzero;"/>
            </g>
        </g>
        <g transform="matrix(4.16667,0,0,4.16667,0,0)">
            <g transform="matrix(1,0,0,1,1037.26,277.396)">
                <path d="M0,-82.859L-8.761,-70.564C-10.567,-72.326 -13.748,-73.994 -18.316,-75.57C-22.88,-77.151 -27.374,-77.942 -31.783,-77.942C-41.415,-77.942 -49.056,-74.598 -54.711,-67.921C-60.366,-61.245 -63.189,-52.089 -63.189,-40.461C-63.189,-28.888 -60.331,-20.072 -54.601,-14.009C-48.872,-7.946 -40.929,-4.915 -30.766,-4.915C-22.88,-4.915 -14.938,-7.946 -6.932,-14.012L0,0.739C-9.42,6.805 -21.089,9.836 -35.001,9.836C-48.481,9.836 -59.626,5.314 -68.426,-3.732C-77.231,-12.774 -81.631,-25.016 -81.631,-40.461C-81.631,-56.209 -77.028,-68.852 -67.821,-78.387C-58.62,-87.923 -46.019,-92.695 -30.032,-92.695C-24.889,-92.695 -19.309,-91.619 -13.298,-89.474C-7.283,-87.332 -2.851,-85.126 0,-82.859" style="fill:rgb(46,48,146);fill-rule:nonzero;"/>
            </g>
        </g>
        <g transform="matrix(4.16667,0,0,4.16667,0,0)">
            <g transform="matrix(1,0,0,1,1114.86,146.099)">
                <path d="M0,139.167L0,77.136C0,69.766 -1.822,63.962 -5.464,59.718C-9.108,55.476 -14.232,53.356 -20.836,53.356C-25.097,53.356 -29.371,54.6 -33.661,57.09C-37.951,59.58 -41.24,62.479 -43.521,65.8L-43.521,139.167L-60.978,139.167L-60.978,8.651L-43.521,0L-43.521,51.327C-41.182,47.701 -37.408,44.674 -32.201,42.246C-27.002,39.82 -21.624,38.603 -16.086,38.603C-5.609,38.603 2.594,42.044 8.539,48.924C14.483,55.813 17.456,65.21 17.456,77.136L17.456,139.167L0,139.167Z" style="fill:rgb(46,48,146);fill-rule:nonzero;"/>
            </g>
        </g>
        <g transform="matrix(4.16667,0,0,4.16667,0,0)">
            <text x="1141.24px" y="308.172px" style="font-family:'LucidaGrande-Bold', 'Lucida Grande', sans-serif;font-weight:600;font-size:94.417px;fill:rgb(46,48,146);">®</text>
            <text x="103.425px" y="395.706px" style="font-family:'LucidaGrande', 'Lucida Grande', sans-serif;font-weight:500;font-size:48.154px;fill:rgb(46,48,146);">B<tspan x="134.011px 150.819px 171.718px 194.309px 226.777px 259.549px 276.357px 303.91px " y="395.706px 395.706px 395.706px 395.706px 395.706px 395.706px 395.706px 395.706px ">itronics</tspan></text>
            <text x="352.865px" y="395.706px" style="font-family:'LucidaGrande', 'Lucida Grande', sans-serif;font-weight:500;font-size:48.154px;fill:rgb(46,48,146);">I<tspan x="369.626px 402.398px 429.834px 450.733px 473.324px 506.097px 553.942px 583.658px 616.431px 637.329px " y="395.706px 395.706px 395.706px 395.706px 395.706px 395.706px 395.706px 395.706px 395.706px 395.706px ">nstruments</tspan></text>
            <text x="685.706px" y="395.706px" style="font-family:'LucidaGrande', 'Lucida Grande', sans-serif;font-weight:500;font-size:48.154px;fill:rgb(46,48,146);"><tspan x="685.706px " y="395.706px ">&amp;</tspan></text>
            <text x="740.412px" y="395.706px" style="font-family:'LucidaGrande', 'Lucida Grande', sans-serif;font-weight:500;font-size:48.154px;fill:rgb(46,48,146);">O<tspan x="780.709px 803.3px 820.108px 852.575px " y="395.706px 395.706px 395.706px 395.706px ">rion</tspan></text>
            <text x="900.525px" y="395.706px" style="font-family:'LucidaGrande', 'Lucida Grande', sans-serif;font-weight:500;font-size:48.154px;fill:rgb(46,48,146);">A<tspan x="936.637px 969.41px 990.308px 1022.77px 1070.62px 1100.1px 1121px 1137.81px 1170.27px " y="395.706px 395.706px 395.706px 395.706px 395.706px 395.706px 395.706px 395.706px 395.706px ">utomation</tspan></text>
        </g>
    </g>
</svg>
