<?xml version="1.0" encoding="UTF-8" standalone="no"?>
<!DOCTYPE svg PUBLIC "-//W3C//DTD SVG 1.1//EN" "http://www.w3.org/Graphics/SVG/1.1/DTD/svg11.dtd">
<svg width="100%" height="100%" viewBox="0 0 243 224" version="1.1" xmlns="http://www.w3.org/2000/svg" xmlns:xlink="http://www.w3.org/1999/xlink" xml:space="preserve" xmlns:serif="http://www.serif.com/" style="fill-rule:evenodd;clip-rule:evenodd;stroke-linejoin:round;stroke-miterlimit:2;">
    <g transform="matrix(1,0,0,1,-143.479,-542.853)">
        <g transform="matrix(1.33333,0,0,1.33333,0,0)">
            <g transform="matrix(0,-1,-1,0,565.385,673.708)">
                <path d="M223.546,325.475C214.804,325.475 207.716,332.802 207.716,341.838C207.716,350.876 214.804,358.202 223.546,358.202C232.289,358.202 239.377,350.876 239.377,341.838C239.377,332.802 232.289,325.475 223.546,325.475" style="fill:rgb(0,94,171);fill-rule:nonzero;"/>
            </g>
        </g>
        <g transform="matrix(1.33333,0,0,1.33333,0,0)">
            <g transform="matrix(1,0,0,1,0,190.205)">
                <path d="M107.609,384.86L122.017,266.935L150.017,266.935C150.017,266.935 162.128,268.119 165.979,276.416L173.017,216.935L198.498,216.935L193.535,269.009C193.535,269.009 205.185,268.888 207.259,275.406L208.096,269.089L211.293,269.013C211.293,269.013 200.643,245.684 224.688,244.887C240.747,244.355 240.062,267.719 235.017,269.009L239.165,269.009L229.09,340.416L200.875,340.295L202.25,331.795C202.25,331.795 201.733,340.956 186.875,341.42L156.795,341.305L157.266,333.339C152.997,340.657 141.267,340.935 140.498,340.713L135.461,384.86L107.609,384.86Z" style="fill:rgb(0,94,171);fill-rule:nonzero;"/>
            </g>
        </g>
        <g transform="matrix(1.33333,0,0,1.33333,0,0)">
            <g transform="matrix(1,0,0,1,0,191.477)">
                <path d="M110.956,380.77L124.993,268.262L151.067,268.262C151.067,268.262 164.048,270.922 167.363,281.892L175.66,219.669L195.808,219.669L190.475,270.041C190.475,270.041 201.456,268.486 207.085,276.189L209.438,279.521L210.623,269.744L216.845,269.744C206.096,266.219 207.376,243.724 224.21,245.213C243.999,246.964 237.833,269.873 228.4,270.041L235.808,269.744L226.623,337.298L203.215,337.595L204.697,323.077C204.697,323.077 202.845,335.998 187.75,337.273L159.66,337.298L160.252,325.151C153.734,336.41 140.062,336.853 139.329,336.641L133.585,380.854L110.956,380.77Z" style="fill:white;fill-rule:nonzero;"/>
            </g>
        </g>
        <g transform="matrix(1.33333,0,0,1.33333,0,0)">
            <g transform="matrix(1,0,0,1,0,241.487)">
                <path d="M113.688,328.178L128.207,222.104L153.392,222.104C154.28,222.104 164.576,226.425 164.279,232.351C164.086,236.209 160.01,271.078 160.01,271.078C160.01,271.078 152.041,283.581 140.189,283.581L136.225,283.886L130.735,328.409L113.688,328.178Z" style="fill:rgb(196,17,48);fill-rule:nonzero;"/>
            </g>
        </g>
        <g transform="matrix(1.33333,0,0,1.33333,0,0)">
            <g transform="matrix(1,0,0,1,0,148.255)">
                <path d="M163.354,377.576L177.576,266.169L192.983,266.169L187.65,315.65C187.65,315.65 194.465,315.947 195.946,316.243C197.428,316.539 206.317,320.687 206.317,325.428L201.375,364.995C201.375,364.995 200.125,375.995 188.539,377.576L163.354,377.576Z" style="fill:rgb(196,17,48);fill-rule:nonzero;"/>
            </g>
        </g>
        <g transform="matrix(1.33333,0,0,1.33333,0,0)">
            <g transform="matrix(-0.0220044,-0.999758,-0.999758,0.0220044,570.517,666.696)">
                <path d="M224.21,330.766C218.288,330.896 213.143,337.17 213.266,342.752C213.388,348.334 218.288,352.756 224.21,352.625C230.132,352.495 234.833,347.862 234.71,342.28C234.552,335.107 230.131,330.636 224.21,330.766" style="fill:rgb(196,17,48);fill-rule:nonzero;"/>
            </g>
        </g>
        <g transform="matrix(1.33333,0,0,1.33333,0,0)">
            <g transform="matrix(1,0,0,1,0,197.996)">
                <path d="M214.243,266.483L231.428,266.483L223.132,327.521L207.428,327.521L214.243,266.483Z" style="fill:rgb(196,17,48);fill-rule:nonzero;"/>
            </g>
        </g>
        <g transform="matrix(1.33333,0,0,1.33333,0,0)">
            <g transform="matrix(0.127725,-0.99181,-0.99181,-0.127725,417.868,675.702)">
                <path d="M124.245,299.39L161.395,299.39C165.383,299.457 166.027,293.144 161.555,292.062C161.555,292.062 126.077,292.374 124.472,292.451C122.703,292.535 119.531,297.554 124.245,299.39" style="fill:white;fill-rule:nonzero;"/>
            </g>
        </g>
        <g transform="matrix(1.33333,0,0,1.33333,0,0)">
            <g transform="matrix(0.975834,0.218512,0.218512,-0.975834,-61.202,753.639)">
                <path d="M142.762,277.792C142.762,277.792 139.591,313.246 139.603,313.576C139.669,315.331 142.514,315.705 142.762,314.142C142.762,314.142 145.611,279.594 145.76,278.046C145.865,276.959 143.383,275.847 142.762,277.792" style="fill:rgb(0,94,171);fill-rule:nonzero;"/>
            </g>
        </g>
        <g transform="matrix(1.33333,0,0,1.33333,0,0)">
            <g transform="matrix(0.127725,-0.99181,-0.99181,-0.127725,458.818,715.763)">
                <path d="M167.495,302.64L204.645,302.64C208.633,302.707 209.277,296.394 204.805,295.312C204.805,295.312 169.327,295.624 167.722,295.701C165.953,295.785 162.781,300.804 167.495,302.64" style="fill:white;fill-rule:nonzero;"/>
            </g>
        </g>
        <g transform="matrix(1.33333,0,0,1.33333,0,0)">
            <g transform="matrix(0.975834,0.218512,0.218512,-0.975834,-61.1128,744.083)">
                <path d="M186.012,282.167C186.012,282.167 182.841,317.621 182.853,317.951C182.919,319.706 185.764,320.08 186.012,318.517C186.012,318.517 188.861,283.969 189.01,282.421C189.115,281.334 186.633,280.222 186.012,282.167" style="fill:rgb(0,94,171);fill-rule:nonzero;"/>
            </g>
        </g>
        <g transform="matrix(1.33333,0,0,1.33333,0,0)">
            <g transform="matrix(1,0,0,1,0,103.735)">
                <path d="M228.2,335.756L222.48,342.702L224.931,343.111L219.62,348.831L221.663,349.24L218.801,352.509L228.609,348.831L225.749,347.198L231.469,343.52L229.018,342.294L232.696,339.433L228.2,335.756Z" style="fill:white;fill-rule:nonzero;"/>
            </g>
        </g>
        <g transform="matrix(1.33333,0,0,1.33333,0,0)">
            <g transform="matrix(1,0,0,1,0,300.352)">
                <path d="M149.613,245.46C149.895,245.46 150.167,245.419 150.433,245.335C150.698,245.252 150.933,245.132 151.135,244.976C151.338,244.82 151.5,244.625 151.619,244.39C151.739,244.156 151.799,243.882 151.799,243.57C151.799,243.007 151.638,242.62 151.315,242.406C150.992,242.192 150.571,242.085 150.051,242.085L149.177,242.085L148.817,245.46L149.613,245.46ZM148.5,248.27C148.442,248.717 148.414,249.169 148.414,249.627C148.414,249.95 148.463,250.212 148.562,250.415C148.661,250.618 148.83,250.823 149.069,251.031L145.37,251.031C145.609,250.854 145.797,250.669 145.932,250.476C146.067,250.284 146.171,250.081 146.244,249.868C146.317,249.654 146.366,249.428 146.393,249.189C146.418,248.949 146.447,248.694 146.479,248.423L147.024,243.24C147.045,243.032 147.066,242.829 147.087,242.63C147.108,242.433 147.118,242.23 147.118,242.022C147.118,241.71 147.069,241.45 146.97,241.242C146.871,241.033 146.702,240.825 146.463,240.617L150.568,240.617C151.016,240.617 151.447,240.664 151.863,240.757C152.28,240.851 152.646,241.004 152.964,241.218C153.281,241.432 153.536,241.715 153.729,242.07C153.921,242.424 154.018,242.862 154.018,243.382C154.018,243.914 153.911,244.432 153.697,244.937C153.484,245.442 153.148,245.856 152.691,246.179C152.223,246.512 151.718,246.718 151.177,246.796C150.636,246.875 150.089,246.914 149.538,246.914L148.664,246.914C148.611,247.371 148.557,247.824 148.5,248.27" style="fill-rule:nonzero;"/>
            </g>
        </g>
        <g transform="matrix(1.33333,0,0,1.33333,0,0)">
            <g transform="matrix(1,0,0,1,0,300.352)">
                <path d="M153.827,251.031C154.066,250.854 154.254,250.669 154.389,250.476C154.524,250.284 154.628,250.081 154.701,249.868C154.774,249.654 154.824,249.428 154.85,249.189C154.875,248.949 154.904,248.694 154.936,248.423L155.482,243.24C155.502,243.032 155.523,242.829 155.544,242.63C155.565,242.433 155.576,242.23 155.576,242.022C155.576,241.71 155.526,241.45 155.427,241.242C155.328,241.033 155.159,240.825 154.92,240.617L158.619,240.617C158.359,240.804 158.161,240.992 158.026,241.179C157.891,241.367 157.79,241.564 157.722,241.772C157.654,241.98 157.61,242.205 157.589,242.444C157.568,242.683 157.542,242.949 157.511,243.24L156.965,248.423C156.944,248.621 156.923,248.819 156.902,249.017C156.881,249.214 156.871,249.418 156.871,249.626C156.871,249.949 156.92,250.211 157.02,250.414C157.118,250.617 157.287,250.823 157.527,251.031L153.827,251.031Z" style="fill-rule:nonzero;"/>
            </g>
        </g>
        <g transform="matrix(1.33333,0,0,1.33333,0,0)">
            <g transform="matrix(1,0,0,1,0,300.352)">
                <path d="M161.272,249.468L163.676,249.468C163.905,249.468 164.11,249.463 164.292,249.453C164.475,249.442 164.644,249.414 164.8,249.367C164.956,249.32 165.104,249.248 165.245,249.148C165.385,249.049 165.533,248.912 165.689,248.735L165.19,251.031L158.244,251.031C158.483,250.854 158.67,250.669 158.806,250.476C158.941,250.284 159.045,250.081 159.118,249.868C159.19,249.654 159.24,249.428 159.266,249.189C159.292,248.949 159.321,248.694 159.352,248.423L159.898,243.24C159.919,243.032 159.94,242.829 159.961,242.63C159.981,242.433 159.992,242.23 159.992,242.022C159.992,241.71 159.942,241.45 159.844,241.242C159.745,241.033 159.576,240.825 159.336,240.617L165.939,240.617L165.924,242.927C165.757,242.595 165.56,242.387 165.331,242.304C165.102,242.221 164.805,242.179 164.44,242.179L162.037,242.179L161.771,244.71L164.035,244.71C164.305,244.71 164.55,244.682 164.769,244.625C164.987,244.567 165.206,244.412 165.424,244.161L165.159,246.799C164.981,246.542 164.797,246.374 164.604,246.295C164.412,246.218 164.16,246.179 163.848,246.179L161.615,246.179L161.272,249.468Z" style="fill-rule:nonzero;"/>
            </g>
        </g>
        <g transform="matrix(1.33333,0,0,1.33333,0,0)">
            <g transform="matrix(1,0,0,1,0,300.352)">
                <path d="M170.073,249.578C170.51,249.578 170.935,249.515 171.346,249.39C171.756,249.265 172.107,249.026 172.399,248.672C172.794,248.183 173.083,247.629 173.266,247.01C173.447,246.391 173.539,245.769 173.539,245.145C173.539,244.698 173.497,244.287 173.414,243.912C173.331,243.537 173.192,243.214 173,242.944C172.808,242.673 172.545,242.462 172.212,242.312C171.879,242.161 171.462,242.085 170.963,242.085L169.855,242.085L169.059,249.578L170.073,249.578ZM171.277,240.617C172.682,240.617 173.775,240.986 174.555,241.725C175.336,242.464 175.726,243.557 175.726,245.004C175.726,245.785 175.609,246.55 175.375,247.299C175.141,248.048 174.769,248.725 174.259,249.329C173.967,249.683 173.652,249.969 173.314,250.188C172.976,250.406 172.62,250.578 172.245,250.703C171.871,250.828 171.478,250.914 171.066,250.96C170.655,251.007 170.231,251.031 169.794,251.031L166.048,251.031C166.288,250.854 166.475,250.669 166.61,250.476C166.745,250.284 166.85,250.081 166.922,249.868C166.995,249.654 167.044,249.428 167.07,249.189C167.097,248.949 167.125,248.694 167.156,248.423L167.703,243.24C167.724,243.032 167.744,242.829 167.765,242.63C167.786,242.433 167.796,242.23 167.796,242.022C167.796,241.71 167.747,241.45 167.648,241.242C167.549,241.033 167.38,240.825 167.141,240.617L171.277,240.617Z" style="fill-rule:nonzero;"/>
            </g>
        </g>
        <g transform="matrix(1.33333,0,0,1.33333,0,0)">
            <g transform="matrix(1,0,0,1,0,300.352)">
                <path d="M179.952,243.88L179.172,248.861C179.141,249.017 179.114,249.173 179.094,249.329C179.073,249.485 179.063,249.646 179.063,249.813C179.063,250.052 179.099,250.279 179.172,250.492C179.245,250.706 179.385,250.885 179.593,251.031L175.925,251.031C176.331,250.802 176.609,250.526 176.76,250.204C176.911,249.88 177.023,249.496 177.096,249.048L178.173,242.99C178.235,242.626 178.267,242.261 178.267,241.897C178.267,241.627 178.222,241.39 178.134,241.187C178.045,240.984 177.907,240.794 177.72,240.617L180.452,240.617L182.715,245.628L185.978,240.617L188.803,240.617C188.605,240.752 188.446,240.892 188.327,241.039C188.207,241.184 188.11,241.337 188.038,241.499C187.965,241.661 187.913,241.835 187.882,242.022C187.851,242.21 187.83,242.422 187.819,242.662L187.554,248.377C187.554,248.491 187.551,248.608 187.546,248.728C187.541,248.847 187.538,248.964 187.538,249.08C187.538,249.266 187.543,249.454 187.554,249.641C187.564,249.829 187.593,250.005 187.64,250.172C187.687,250.338 187.759,250.495 187.858,250.64C187.957,250.787 188.095,250.917 188.272,251.031L184.744,251.031C185.067,250.792 185.272,250.5 185.361,250.157C185.449,249.813 185.504,249.449 185.525,249.064L185.837,243.787C185.649,244.098 185.462,244.408 185.275,244.715C185.088,245.022 184.89,245.327 184.682,245.628L182.293,249.188L179.952,243.88Z" style="fill-rule:nonzero;"/>
            </g>
        </g>
        <g transform="matrix(1.33333,0,0,1.33333,0,0)">
            <g transform="matrix(1,0,0,1,0,300.351)">
                <path d="M196.448,244.943C196.448,244.63 196.422,244.303 196.37,243.96C196.318,243.616 196.219,243.304 196.073,243.023C195.928,242.742 195.733,242.51 195.488,242.329C195.244,242.146 194.924,242.055 194.529,242.055C193.957,242.055 193.494,242.219 193.141,242.547C192.787,242.875 192.509,243.278 192.306,243.756C192.104,244.235 191.966,244.751 191.893,245.301C191.82,245.853 191.784,246.348 191.784,246.785C191.784,247.107 191.815,247.438 191.877,247.776C191.939,248.114 192.046,248.416 192.197,248.681C192.348,248.947 192.551,249.165 192.806,249.336C193.06,249.508 193.385,249.594 193.78,249.594C194.321,249.594 194.766,249.428 195.114,249.094C195.462,248.762 195.735,248.356 195.933,247.878C196.13,247.399 196.266,246.891 196.338,246.356C196.411,245.82 196.448,245.348 196.448,244.943M198.651,244.787C198.651,245.567 198.549,246.342 198.347,247.113C198.144,247.883 197.831,248.578 197.41,249.198C196.988,249.817 196.455,250.317 195.81,250.696C195.164,251.076 194.404,251.266 193.53,251.266C192.864,251.266 192.281,251.154 191.782,250.93C191.282,250.707 190.869,250.397 190.541,250.002C190.213,249.606 189.968,249.137 189.807,248.596C189.646,248.055 189.565,247.467 189.565,246.832C189.565,246.03 189.669,245.245 189.877,244.474C190.085,243.704 190.405,243.014 190.837,242.405C191.269,241.796 191.813,241.307 192.469,240.938C193.125,240.568 193.895,240.383 194.779,240.383C195.435,240.383 196.005,240.498 196.489,240.727C196.973,240.956 197.373,241.271 197.69,241.671C198.008,242.073 198.248,242.538 198.409,243.069C198.57,243.6 198.651,244.172 198.651,244.787" style="fill-rule:nonzero;"/>
            </g>
        </g>
        <g transform="matrix(1.33333,0,0,1.33333,0,0)">
            <g transform="matrix(1,0,0,1,0,300.352)">
                <path d="M202.284,243.412L201.769,248.423C201.748,248.621 201.725,248.819 201.698,249.017C201.672,249.214 201.659,249.418 201.659,249.626C201.659,249.949 201.709,250.211 201.808,250.414C201.907,250.617 202.076,250.823 202.315,251.031L198.912,251.031C199.151,250.854 199.339,250.669 199.474,250.476C199.609,250.284 199.713,250.081 199.786,249.868C199.859,249.654 199.909,249.428 199.935,249.189C199.96,248.949 199.989,248.694 200.021,248.423L200.567,243.24C200.587,243.032 200.608,242.829 200.629,242.63C200.65,242.433 200.661,242.23 200.661,242.022C200.661,241.71 200.611,241.45 200.512,241.242C200.413,241.033 200.244,240.825 200.005,240.617L203.064,240.617L206.249,247.798L206.732,243.24C206.753,243.032 206.774,242.829 206.795,242.63C206.815,242.433 206.826,242.23 206.826,242.022C206.826,241.71 206.777,241.45 206.678,241.242C206.579,241.033 206.41,240.825 206.17,240.617L209.589,240.617C209.339,240.794 209.146,240.978 209.012,241.171C208.876,241.364 208.772,241.564 208.699,241.772C208.626,241.98 208.577,242.207 208.551,242.452C208.525,242.696 208.501,242.959 208.48,243.24L207.935,248.423C207.914,248.621 207.898,248.819 207.888,249.017C207.877,249.214 207.872,249.418 207.872,249.626C207.872,249.959 207.935,250.227 208.059,250.429C208.184,250.632 208.372,250.834 208.621,251.031L205.733,251.031L202.284,243.412Z" style="fill-rule:nonzero;"/>
            </g>
        </g>
        <g transform="matrix(1.33333,0,0,1.33333,0,0)">
            <g transform="matrix(1,0,0,1,0,300.352)">
                <path d="M214.503,248.423C214.482,248.622 214.459,248.819 214.433,249.017C214.407,249.214 214.394,249.418 214.394,249.626C214.394,249.949 214.443,250.211 214.542,250.415C214.641,250.617 214.81,250.823 215.05,251.031L211.366,251.031C211.605,250.854 211.792,250.669 211.928,250.476C212.063,250.284 212.167,250.082 212.24,249.868C212.313,249.655 212.362,249.428 212.388,249.189C212.414,248.95 212.443,248.695 212.474,248.423L213.13,242.179L212.224,242.179C211.725,242.179 211.303,242.252 210.96,242.398C210.616,242.544 210.263,242.788 209.898,243.131L210.445,240.617L218.156,240.617L218.171,243.13C217.87,242.767 217.558,242.517 217.235,242.382C216.912,242.247 216.517,242.179 216.049,242.179L215.159,242.179L214.503,248.423Z" style="fill-rule:nonzero;"/>
            </g>
        </g>
        <g transform="matrix(1.33333,0,0,1.33333,0,0)">
            <g transform="matrix(1,0,0,1,0,300.352)">
                <path d="M226.721,244.898C227.293,244.898 227.754,244.773 228.103,244.523C228.451,244.273 228.625,243.84 228.625,243.226C228.625,242.987 228.584,242.792 228.5,242.64C228.417,242.489 228.303,242.372 228.157,242.289C228.012,242.206 227.848,242.151 227.666,242.125C227.483,242.098 227.288,242.085 227.08,242.085L225.972,242.085L225.675,244.898L226.721,244.898ZM226.379,249.578C226.982,249.578 227.472,249.421 227.847,249.11C228.221,248.798 228.408,248.331 228.408,247.708C228.408,247.426 228.361,247.201 228.268,247.029C228.174,246.858 228.047,246.72 227.886,246.616C227.724,246.512 227.54,246.442 227.331,246.406C227.123,246.37 226.899,246.351 226.66,246.351L225.521,246.351L225.177,249.578L226.379,249.578ZM227.58,240.617C227.944,240.617 228.311,240.635 228.681,240.671C229.05,240.708 229.391,240.825 229.704,241.023C230.026,241.221 230.282,241.489 230.469,241.828C230.657,242.167 230.75,242.518 230.75,242.882C230.75,243.581 230.565,244.137 230.196,244.554C229.826,244.971 229.329,245.284 228.704,245.492C229.266,245.637 229.722,245.882 230.071,246.225C230.42,246.568 230.594,247.052 230.594,247.676C230.594,248.155 230.503,248.613 230.321,249.049C230.139,249.486 229.865,249.861 229.5,250.172C229.063,250.547 228.597,250.784 228.103,250.882C227.608,250.982 227.085,251.031 226.534,251.031L222.163,251.031C222.402,250.854 222.59,250.669 222.725,250.476C222.86,250.284 222.965,250.081 223.038,249.868C223.11,249.654 223.16,249.428 223.186,249.189C223.212,248.949 223.24,248.694 223.271,248.423L223.818,243.24C223.839,243.032 223.859,242.829 223.88,242.63C223.901,242.433 223.912,242.23 223.912,242.022C223.912,241.71 223.862,241.45 223.763,241.242C223.665,241.033 223.495,240.825 223.256,240.617L227.58,240.617Z" style="fill-rule:nonzero;"/>
            </g>
        </g>
        <g transform="matrix(1.33333,0,0,1.33333,0,0)">
            <g transform="matrix(1,0,0,1,0,300.586)">
                <path d="M235.883,240.383C235.644,240.56 235.454,240.742 235.313,240.93C235.173,241.116 235.069,241.316 235.001,241.53C234.934,241.744 234.884,241.973 234.853,242.217C234.821,242.462 234.795,242.725 234.775,243.006L234.385,246.611C234.364,246.789 234.346,246.961 234.33,247.127C234.314,247.293 234.307,247.465 234.307,247.643C234.307,248.215 234.478,248.636 234.821,248.906C235.165,249.178 235.612,249.312 236.164,249.312C236.611,249.312 236.976,249.245 237.257,249.109C237.538,248.975 237.761,248.787 237.928,248.548C238.094,248.309 238.219,248.027 238.303,247.705C238.386,247.382 238.448,247.033 238.49,246.658L238.88,243.006C238.901,242.797 238.922,242.595 238.942,242.396C238.963,242.199 238.974,241.996 238.974,241.788C238.974,241.476 238.924,241.216 238.825,241.008C238.727,240.799 238.558,240.591 238.318,240.383L242.018,240.383C241.768,240.56 241.575,240.742 241.44,240.93C241.305,241.117 241.201,241.317 241.128,241.53C241.055,241.744 241.005,241.973 240.979,242.218C240.953,242.462 240.93,242.725 240.909,243.006L240.519,246.612C240.488,246.914 240.451,247.209 240.41,247.495C240.368,247.781 240.306,248.057 240.223,248.322C240.139,248.588 240.027,248.846 239.887,249.096C239.746,249.345 239.562,249.579 239.333,249.798C238.885,250.245 238.37,250.562 237.787,250.75C237.205,250.937 236.601,251.031 235.977,251.031C235.446,251.031 234.957,250.964 234.509,250.828C234.062,250.693 233.674,250.49 233.347,250.22C233.019,249.949 232.761,249.607 232.574,249.196C232.387,248.785 232.293,248.299 232.293,247.736C232.293,247.497 232.303,247.264 232.324,247.034C232.345,246.805 232.366,246.571 232.387,246.332L232.746,243.006C232.766,242.798 232.787,242.595 232.808,242.396C232.829,242.199 232.839,241.996 232.839,241.788C232.839,241.476 232.79,241.216 232.691,241.008C232.592,240.799 232.423,240.591 232.184,240.383L235.883,240.383Z" style="fill-rule:nonzero;"/>
            </g>
        </g>
        <g transform="matrix(1.33333,0,0,1.33333,0,0)">
            <g transform="matrix(1,0,0,1,0,300.273)">
                <path d="M248.21,243.616C248.002,243.189 247.709,242.835 247.33,242.554C246.95,242.274 246.516,242.133 246.027,242.133C245.84,242.133 245.661,242.157 245.49,242.204C245.318,242.25 245.162,242.323 245.022,242.422C244.881,242.521 244.767,242.643 244.679,242.789C244.59,242.935 244.541,243.106 244.531,243.304C244.531,243.585 244.624,243.83 244.812,244.038C244.999,244.247 245.235,244.444 245.521,244.631C245.807,244.819 246.113,245.008 246.441,245.201C246.769,245.394 247.075,245.615 247.361,245.865C247.646,246.114 247.883,246.406 248.07,246.739C248.257,247.072 248.351,247.467 248.351,247.925C248.351,248.446 248.252,248.916 248.054,249.338C247.856,249.76 247.585,250.119 247.242,250.415C246.898,250.712 246.502,250.941 246.055,251.102C245.607,251.263 245.133,251.344 244.634,251.344C244.395,251.344 244.152,251.324 243.908,251.282C243.664,251.24 243.435,251.196 243.221,251.149C243.008,251.102 242.818,251.058 242.651,251.016C242.485,250.975 242.36,250.954 242.277,250.954C242.183,250.954 242.103,250.975 242.035,251.016C241.967,251.058 241.907,251.115 241.855,251.188L241.949,247.785C242.084,248.034 242.246,248.273 242.433,248.502C242.62,248.731 242.826,248.931 243.05,249.103C243.273,249.274 243.521,249.413 243.791,249.516C244.062,249.621 244.348,249.672 244.649,249.672C245.097,249.672 245.474,249.545 245.781,249.289C246.088,249.035 246.242,248.673 246.242,248.205C246.242,247.934 246.148,247.695 245.961,247.487C245.774,247.279 245.537,247.083 245.251,246.901C244.966,246.719 244.656,246.532 244.324,246.339C243.991,246.147 243.682,245.931 243.396,245.692C243.11,245.452 242.874,245.176 242.687,244.864C242.499,244.551 242.406,244.182 242.406,243.755C242.406,243.266 242.507,242.819 242.71,242.413C242.913,242.007 243.184,241.659 243.521,241.367C243.859,241.076 244.247,240.852 244.684,240.696C245.121,240.539 245.573,240.461 246.042,240.461C246.333,240.461 246.619,240.496 246.9,240.563C247.181,240.63 247.467,240.664 247.758,240.664C247.883,240.664 247.995,240.638 248.094,240.586C248.192,240.535 248.283,240.466 248.367,240.383L248.21,243.616Z" style="fill-rule:nonzero;"/>
            </g>
        </g>
        <g transform="matrix(1.33333,0,0,1.33333,0,0)">
            <g transform="matrix(1,0,0,1,0,300.352)">
                <path d="M252.144,246.445L251.941,248.425C251.92,248.624 251.899,248.821 251.878,249.019C251.857,249.216 251.847,249.419 251.847,249.627C251.847,249.95 251.896,250.212 251.996,250.415C252.094,250.618 252.264,250.823 252.503,251.031L248.803,251.031C249.042,250.854 249.23,250.669 249.365,250.476C249.5,250.284 249.604,250.081 249.678,249.868C249.75,249.654 249.8,249.428 249.826,249.189C249.852,248.949 249.88,248.694 249.912,248.423L250.458,243.24C250.479,243.032 250.5,242.829 250.521,242.63C250.541,242.433 250.552,242.23 250.552,242.022C250.552,241.71 250.502,241.45 250.403,241.242C250.305,241.033 250.135,240.825 249.896,240.617L253.596,240.617C253.335,240.804 253.138,240.992 253.002,241.179C252.867,241.367 252.766,241.565 252.698,241.773C252.63,241.981 252.586,242.206 252.565,242.445C252.544,242.684 252.519,242.95 252.487,243.242L252.315,244.882L255.843,244.882L256.015,243.242C256.036,243.034 256.057,242.831 256.077,242.632C256.098,242.434 256.108,242.231 256.108,242.023C256.108,241.71 256.062,241.45 255.968,241.242C255.874,241.034 255.708,240.825 255.469,240.617L259.152,240.617C258.913,240.794 258.726,240.978 258.59,241.171C258.455,241.364 258.354,241.567 258.286,241.78C258.218,241.994 258.169,242.22 258.138,242.46C258.106,242.699 258.075,242.959 258.044,243.24L257.498,248.423C257.477,248.621 257.456,248.819 257.436,249.017C257.415,249.214 257.404,249.418 257.404,249.626C257.404,249.949 257.454,250.211 257.552,250.414C257.651,250.617 257.82,250.823 258.06,251.031L254.36,251.031C254.61,250.854 254.805,250.672 254.945,250.485C255.086,250.297 255.19,250.097 255.258,249.884C255.325,249.671 255.372,249.445 255.398,249.206C255.424,248.966 255.448,248.707 255.469,248.425L255.687,246.445L252.144,246.445Z" style="fill-rule:nonzero;"/>
            </g>
        </g>
        <g transform="matrix(1.33333,0,0,1.33333,0,0)">
            <g transform="matrix(1,0,0,1,0,300.352)">
                <path d="M258.775,251.031C259.014,250.854 259.202,250.669 259.337,250.476C259.472,250.284 259.576,250.081 259.649,249.868C259.722,249.654 259.771,249.428 259.797,249.189C259.823,248.949 259.852,248.694 259.883,248.423L260.43,243.24C260.45,243.032 260.471,242.829 260.492,242.63C260.513,242.433 260.523,242.23 260.523,242.022C260.523,241.71 260.474,241.45 260.375,241.242C260.276,241.033 260.107,240.825 259.868,240.617L263.567,240.617C263.307,240.804 263.109,240.992 262.974,241.179C262.839,241.367 262.737,241.564 262.669,241.772C262.602,241.98 262.558,242.205 262.537,242.444C262.516,242.683 262.49,242.949 262.459,243.24L261.913,248.423C261.892,248.621 261.871,248.819 261.85,249.017C261.829,249.214 261.819,249.418 261.819,249.626C261.819,249.949 261.868,250.211 261.967,250.414C262.066,250.617 262.235,250.823 262.475,251.031L258.775,251.031Z" style="fill-rule:nonzero;"/>
            </g>
        </g>
        <g transform="matrix(1.33333,0,0,1.33333,0,0)">
            <g transform="matrix(1,0,0,1,0,300.352)">
                <path d="M266.563,243.412L266.048,248.423C266.027,248.621 266.004,248.819 265.978,249.017C265.952,249.214 265.938,249.418 265.938,249.626C265.938,249.949 265.988,250.211 266.087,250.414C266.186,250.617 266.355,250.823 266.594,251.031L263.191,251.031C263.431,250.854 263.618,250.669 263.753,250.476C263.889,250.284 263.993,250.081 264.065,249.868C264.139,249.654 264.188,249.428 264.214,249.189C264.24,248.949 264.269,248.694 264.3,248.423L264.846,243.24C264.867,243.032 264.888,242.829 264.909,242.63C264.929,242.433 264.94,242.23 264.94,242.022C264.94,241.71 264.891,241.45 264.792,241.242C264.692,241.033 264.523,240.825 264.284,240.617L267.344,240.617L270.528,247.798L271.012,243.24C271.033,243.032 271.054,242.829 271.074,242.63C271.095,242.433 271.105,242.23 271.105,242.022C271.105,241.71 271.056,241.45 270.957,241.242C270.858,241.033 270.689,240.825 270.45,240.617L273.868,240.617C273.619,240.794 273.426,240.978 273.291,241.171C273.155,241.364 273.051,241.564 272.979,241.772C272.906,241.98 272.856,242.207 272.83,242.452C272.804,242.696 272.781,242.959 272.76,243.24L272.214,248.423C272.193,248.621 272.177,248.819 272.167,249.017C272.156,249.214 272.151,249.418 272.151,249.626C272.151,249.959 272.214,250.227 272.338,250.429C272.463,250.632 272.651,250.834 272.9,251.031L270.013,251.031L266.563,243.412Z" style="fill-rule:nonzero;"/>
            </g>
        </g>
        <g transform="matrix(1.33333,0,0,1.33333,0,0)">
            <g transform="matrix(1,0,0,1,0,300.117)">
                <path d="M282.173,245.227L281.751,249.315C281.73,249.43 281.715,249.549 281.705,249.674C281.694,249.799 281.689,249.918 281.689,250.032C281.689,250.22 281.712,250.4 281.759,250.571C281.806,250.742 281.887,250.906 282.001,251.063C281.814,251.063 281.608,251.086 281.385,251.133C281.161,251.18 280.924,251.23 280.675,251.281C280.425,251.333 280.165,251.383 279.894,251.43C279.624,251.477 279.348,251.5 279.067,251.5C278.338,251.5 277.68,251.386 277.092,251.156C276.504,250.928 276.001,250.603 275.585,250.181C275.168,249.759 274.851,249.249 274.632,248.651C274.413,248.052 274.304,247.389 274.304,246.66C274.304,245.827 274.455,245.047 274.757,244.318C275.059,243.589 275.473,242.949 275.999,242.398C276.525,241.846 277.147,241.411 277.865,241.094C278.583,240.777 279.358,240.617 280.19,240.617C280.43,240.617 280.667,240.636 280.901,240.672C281.135,240.708 281.372,240.727 281.611,240.727C281.923,240.727 282.188,240.612 282.407,240.383L282.173,243.584C281.923,243.168 281.629,242.848 281.291,242.625C280.953,242.401 280.529,242.289 280.019,242.289C279.446,242.289 278.939,242.417 278.497,242.672C278.055,242.927 277.686,243.262 277.389,243.679C277.092,244.095 276.868,244.563 276.718,245.083C276.566,245.604 276.491,246.124 276.491,246.644C276.491,247.685 276.756,248.476 277.287,249.017C277.818,249.558 278.609,249.828 279.66,249.828L279.988,246.742C279.749,246.742 279.52,246.774 279.301,246.836C279.083,246.899 278.885,247.013 278.708,247.18L279.051,245.227L282.173,245.227Z" style="fill-rule:nonzero;"/>
            </g>
        </g>
        <g transform="matrix(1.33333,0,0,1.33333,0,0)">
            <g transform="matrix(1,0,0,1,0,300.273)">
                <path d="M289.612,243.616C289.404,243.189 289.111,242.835 288.731,242.554C288.352,242.274 287.918,242.133 287.43,242.133C287.242,242.133 287.063,242.157 286.892,242.204C286.72,242.25 286.564,242.323 286.424,242.422C286.283,242.521 286.169,242.643 286.081,242.789C285.992,242.935 285.943,243.106 285.933,243.304C285.933,243.585 286.026,243.83 286.213,244.038C286.4,244.247 286.637,244.444 286.923,244.631C287.208,244.819 287.515,245.008 287.843,245.201C288.17,245.394 288.477,245.615 288.763,245.865C289.049,246.114 289.285,246.406 289.472,246.739C289.659,247.072 289.753,247.467 289.753,247.925C289.753,248.446 289.654,248.916 289.456,249.338C289.258,249.76 288.987,250.119 288.644,250.415C288.3,250.712 287.904,250.941 287.457,251.102C287.009,251.263 286.535,251.344 286.036,251.344C285.796,251.344 285.555,251.324 285.31,251.282C285.065,251.24 284.836,251.196 284.623,251.149C284.41,251.102 284.22,251.058 284.053,251.016C283.887,250.975 283.762,250.954 283.679,250.954C283.585,250.954 283.504,250.975 283.437,251.016C283.369,251.058 283.31,251.115 283.257,251.188L283.351,247.785C283.486,248.034 283.647,248.273 283.835,248.502C284.022,248.731 284.228,248.931 284.451,249.103C284.675,249.274 284.922,249.413 285.193,249.516C285.463,249.621 285.75,249.672 286.051,249.672C286.499,249.672 286.876,249.545 287.183,249.289C287.49,249.035 287.644,248.673 287.644,248.205C287.644,247.934 287.55,247.695 287.363,247.487C287.176,247.279 286.939,247.083 286.653,246.901C286.367,246.719 286.058,246.532 285.726,246.339C285.393,246.147 285.083,245.931 284.798,245.692C284.512,245.452 284.275,245.176 284.088,244.864C283.901,244.551 283.808,244.182 283.808,243.755C283.808,243.266 283.909,242.819 284.112,242.413C284.314,242.007 284.585,241.659 284.923,241.367C285.262,241.076 285.649,240.852 286.086,240.696C286.523,240.539 286.976,240.461 287.443,240.461C287.735,240.461 288.021,240.496 288.302,240.563C288.583,240.63 288.869,240.664 289.16,240.664C289.285,240.664 289.396,240.638 289.496,240.586C289.594,240.535 289.686,240.466 289.769,240.383L289.612,243.616Z" style="fill-rule:nonzero;"/>
            </g>
        </g>
        <g transform="matrix(1.33333,0,0,1.33333,0,0)">
            <g transform="matrix(1,0,0,1,0,337.492)">
                <path d="M147.406,226.66C146.969,226.817 146.602,227.087 146.306,227.472C146.009,227.858 145.861,228.284 145.861,228.752C145.861,229.033 145.905,229.307 145.994,229.571C146.082,229.837 146.209,230.069 146.376,230.267C146.542,230.464 146.746,230.623 146.985,230.742C147.224,230.862 147.495,230.922 147.796,230.922C148.108,230.922 148.41,230.862 148.702,230.742C148.993,230.623 149.248,230.453 149.466,230.236L147.796,227.441C147.661,227.181 147.531,226.921 147.406,226.66M153.996,226.099C153.642,226.349 153.369,226.63 153.176,226.942C152.984,227.254 152.817,227.579 152.677,227.917C152.537,228.256 152.396,228.597 152.255,228.941C152.115,229.284 151.91,229.616 151.639,229.94C151.889,230.449 152.188,230.921 152.537,231.353C152.885,231.784 153.309,232.152 153.809,232.453L150.765,232.453L150.219,231.517C149.823,231.861 149.386,232.141 148.907,232.36C148.428,232.578 147.923,232.688 147.392,232.688C146.892,232.688 146.431,232.597 146.009,232.414C145.587,232.233 145.223,231.986 144.916,231.673C144.608,231.361 144.369,230.991 144.197,230.565C144.025,230.138 143.939,229.674 143.939,229.175C143.939,228.695 144.012,228.259 144.158,227.863C144.303,227.468 144.504,227.111 144.759,226.793C145.014,226.476 145.316,226.193 145.666,225.943C146.014,225.693 146.392,225.474 146.798,225.286C146.746,225.131 146.707,224.975 146.681,224.819C146.655,224.662 146.642,224.501 146.642,224.334C146.642,223.949 146.728,223.606 146.9,223.304C147.072,223.002 147.298,222.744 147.58,222.53C147.861,222.318 148.176,222.156 148.525,222.047C148.874,221.938 149.22,221.883 149.563,221.883C149.771,221.883 149.971,221.904 150.164,221.945C150.356,221.987 150.552,222.008 150.75,222.008C150.843,222.008 150.934,221.997 151.022,221.977C151.111,221.956 151.197,221.904 151.28,221.82L151.545,224.428C151.337,224.157 151.098,223.919 150.828,223.71C150.557,223.503 150.234,223.399 149.86,223.399C149.724,223.399 149.586,223.419 149.446,223.461C149.305,223.503 149.178,223.563 149.063,223.641C148.949,223.719 148.855,223.818 148.783,223.937C148.709,224.057 148.673,224.195 148.673,224.351C148.673,224.632 148.736,224.903 148.861,225.162C148.985,225.423 149.116,225.673 149.251,225.912L150.828,228.581C151.036,228.206 151.179,227.803 151.257,227.371C151.334,226.94 151.395,226.515 151.436,226.099L153.996,226.099Z" style="fill-rule:nonzero;"/>
            </g>
        </g>
        <g transform="matrix(1.33333,0,0,1.33333,0,0)">
            <g transform="matrix(1,0,0,1,0,337.476)">
                <path d="M158.467,232.469C158.707,232.293 158.894,232.108 159.029,231.916C159.165,231.722 159.269,231.519 159.341,231.306C159.415,231.092 159.464,230.867 159.49,230.627C159.516,230.387 159.544,230.132 159.576,229.862L160.122,224.678C160.143,224.47 160.164,224.267 160.185,224.07C160.205,223.872 160.216,223.669 160.216,223.461C160.216,223.148 160.167,222.888 160.067,222.679C159.968,222.471 159.799,222.263 159.56,222.055L163.259,222.055C163,222.243 162.801,222.43 162.667,222.618C162.531,222.804 162.43,223.003 162.362,223.211C162.294,223.419 162.25,223.642 162.229,223.882C162.208,224.122 162.182,224.387 162.151,224.678L161.605,229.862C161.584,230.06 161.563,230.257 161.542,230.456C161.521,230.653 161.511,230.856 161.511,231.064C161.511,231.387 161.561,231.65 161.66,231.853C161.758,232.055 161.927,232.261 162.167,232.469L158.467,232.469Z" style="fill-rule:nonzero;"/>
            </g>
        </g>
        <g transform="matrix(1.33333,0,0,1.33333,0,0)">
            <g transform="matrix(1,0,0,1,0,337.476)">
                <path d="M166.255,224.85L165.74,229.862C165.719,230.06 165.696,230.257 165.669,230.456C165.644,230.653 165.63,230.856 165.63,231.064C165.63,231.387 165.68,231.65 165.779,231.853C165.878,232.055 166.047,232.261 166.286,232.469L162.883,232.469C163.123,232.293 163.31,232.108 163.445,231.916C163.581,231.722 163.685,231.519 163.757,231.306C163.831,231.092 163.88,230.867 163.906,230.627C163.932,230.387 163.96,230.132 163.992,229.862L164.538,224.678C164.559,224.47 164.58,224.267 164.601,224.07C164.621,223.872 164.632,223.669 164.632,223.461C164.632,223.148 164.583,222.888 164.483,222.679C164.384,222.471 164.215,222.263 163.976,222.055L167.036,222.055L170.22,229.238L170.704,224.678C170.725,224.47 170.746,224.267 170.766,224.07C170.787,223.872 170.797,223.669 170.797,223.461C170.797,223.148 170.748,222.888 170.649,222.679C170.55,222.471 170.381,222.263 170.142,222.055L173.56,222.055C173.311,222.232 173.118,222.417 172.983,222.61C172.847,222.802 172.743,223.003 172.67,223.211C172.598,223.419 172.548,223.645 172.522,223.89C172.496,224.134 172.473,224.397 172.452,224.678L171.906,229.862C171.885,230.06 171.869,230.257 171.859,230.456C171.848,230.653 171.843,230.856 171.843,231.064C171.843,231.397 171.906,231.666 172.03,231.869C172.155,232.071 172.343,232.271 172.592,232.469L169.705,232.469L166.255,224.85Z" style="fill-rule:nonzero;"/>
            </g>
        </g>
        <g transform="matrix(1.33333,0,0,1.33333,0,0)">
            <g transform="matrix(1,0,0,1,0,337.399)">
                <path d="M179.894,225.052C179.686,224.625 179.393,224.272 179.013,223.991C178.634,223.71 178.2,223.57 177.711,223.57C177.524,223.57 177.345,223.593 177.173,223.64C177.001,223.687 176.846,223.76 176.706,223.859C176.565,223.957 176.451,224.08 176.362,224.225C176.274,224.372 176.225,224.543 176.214,224.741C176.214,225.022 176.308,225.266 176.495,225.474C176.682,225.683 176.918,225.88 177.205,226.068C177.49,226.255 177.797,226.445 178.125,226.637C178.452,226.83 178.758,227.051 179.044,227.301C179.331,227.551 179.567,227.842 179.754,228.175C179.941,228.508 180.035,228.904 180.035,229.362C180.035,229.882 179.936,230.353 179.738,230.775C179.54,231.196 179.269,231.555 178.925,231.852C178.582,232.149 178.186,232.377 177.738,232.538C177.291,232.7 176.817,232.781 176.317,232.781C176.078,232.781 175.836,232.76 175.592,232.718C175.347,232.676 175.118,232.632 174.905,232.585C174.691,232.538 174.501,232.495 174.335,232.453C174.168,232.412 174.043,232.39 173.96,232.39C173.867,232.39 173.786,232.412 173.718,232.453C173.651,232.495 173.591,232.551 173.539,232.624L173.633,229.221C173.768,229.47 173.929,229.709 174.117,229.939C174.304,230.167 174.509,230.368 174.733,230.539C174.957,230.711 175.204,230.849 175.475,230.953C175.745,231.057 176.031,231.109 176.333,231.109C176.781,231.109 177.158,230.981 177.465,230.726C177.772,230.471 177.925,230.11 177.925,229.641C177.925,229.371 177.832,229.131 177.645,228.923C177.458,228.715 177.221,228.52 176.935,228.337C176.649,228.156 176.34,227.968 176.007,227.776C175.674,227.583 175.365,227.368 175.08,227.127C174.793,226.888 174.557,226.613 174.37,226.3C174.183,225.989 174.089,225.619 174.089,225.192C174.089,224.703 174.191,224.255 174.394,223.849C174.596,223.444 174.867,223.095 175.205,222.803C175.543,222.512 175.931,222.288 176.368,222.132C176.805,221.976 177.257,221.898 177.725,221.898C178.017,221.898 178.302,221.932 178.583,221.999C178.864,222.067 179.15,222.101 179.442,222.101C179.566,222.101 179.678,222.075 179.777,222.023C179.876,221.971 179.967,221.903 180.05,221.82L179.894,225.052Z" style="fill-rule:nonzero;"/>
            </g>
        </g>
        <g transform="matrix(1.33333,0,0,1.33333,0,0)">
            <g transform="matrix(1,0,0,1,0,337.711)">
                <path d="M185.279,221.82C185.04,221.997 184.85,222.18 184.709,222.366C184.569,222.554 184.465,222.755 184.397,222.968C184.33,223.181 184.28,223.41 184.249,223.654C184.217,223.899 184.191,224.162 184.171,224.443L183.781,228.049C183.76,228.226 183.742,228.397 183.726,228.564C183.71,228.731 183.703,228.902 183.703,229.079C183.703,229.652 183.874,230.073 184.217,230.344C184.561,230.614 185.008,230.75 185.56,230.75C186.007,230.75 186.372,230.683 186.653,230.547C186.934,230.412 187.157,230.225 187.324,229.985C187.49,229.746 187.615,229.465 187.699,229.142C187.782,228.819 187.844,228.471 187.886,228.096L188.276,224.443C188.297,224.235 188.318,224.032 188.338,223.834C188.359,223.637 188.37,223.434 188.37,223.226C188.37,222.913 188.32,222.653 188.221,222.444C188.123,222.236 187.954,222.028 187.714,221.82L191.414,221.82C191.164,221.997 190.971,222.18 190.836,222.367C190.701,222.554 190.597,222.755 190.524,222.968C190.451,223.182 190.401,223.41 190.375,223.655C190.349,223.899 190.326,224.162 190.305,224.443L189.915,228.05C189.884,228.352 189.847,228.646 189.806,228.933C189.764,229.219 189.702,229.494 189.619,229.76C189.535,230.025 189.423,230.283 189.283,230.532C189.142,230.782 188.958,231.017 188.729,231.235C188.281,231.683 187.766,232 187.183,232.187C186.601,232.375 185.997,232.469 185.373,232.469C184.842,232.469 184.353,232.401 183.905,232.266C183.458,232.131 183.07,231.928 182.743,231.657C182.415,231.386 182.157,231.045 181.97,230.634C181.783,230.223 181.689,229.736 181.689,229.175C181.689,228.935 181.699,228.7 181.72,228.472C181.741,228.243 181.762,228.009 181.783,227.768L182.142,224.443C182.162,224.235 182.183,224.032 182.204,223.835C182.225,223.637 182.235,223.434 182.235,223.226C182.235,222.913 182.186,222.653 182.087,222.444C181.988,222.236 181.819,222.028 181.58,221.82L185.279,221.82Z" style="fill-rule:nonzero;"/>
            </g>
        </g>
        <g transform="matrix(1.33333,0,0,1.33333,0,0)">
            <g transform="matrix(1,0,0,1,0,337.476)">
                <path d="M195.095,230.907C195.698,230.907 196.245,230.841 196.734,230.711C197.223,230.582 197.686,230.298 198.123,229.861L197.545,232.469L191.021,232.469C191.26,232.293 191.447,232.108 191.583,231.916C191.718,231.722 191.822,231.519 191.895,231.306C191.967,231.092 192.017,230.867 192.043,230.627C192.069,230.387 192.098,230.132 192.129,229.862L192.675,224.678C192.696,224.47 192.717,224.267 192.738,224.07C192.758,223.872 192.769,223.669 192.769,223.461C192.769,223.148 192.719,222.888 192.621,222.679C192.522,222.471 192.353,222.263 192.113,222.055L195.813,222.055C195.552,222.243 195.355,222.43 195.219,222.617C195.084,222.804 194.983,223.003 194.915,223.211C194.848,223.419 194.803,223.642 194.783,223.881C194.762,224.121 194.736,224.386 194.705,224.678L194.049,230.907L195.095,230.907Z" style="fill-rule:nonzero;"/>
            </g>
        </g>
        <g transform="matrix(1.33333,0,0,1.33333,0,0)">
            <g transform="matrix(1,0,0,1,0,337.476)">
                <path d="M204.271,224.114L202.679,227.844L205.098,227.844L204.271,224.114ZM201.992,229.407C201.919,229.563 201.833,229.748 201.734,229.961C201.636,230.175 201.537,230.396 201.438,230.626C201.339,230.855 201.256,231.076 201.188,231.29C201.121,231.503 201.082,231.699 201.071,231.876C201.071,232.136 201.201,232.334 201.461,232.469L197.996,232.469C198.298,232.293 198.542,232.079 198.729,231.83C198.917,231.58 199.083,231.303 199.229,231.002L202.804,223.257C202.856,223.143 202.903,223.029 202.944,222.914C202.986,222.799 203.007,222.68 203.007,222.555C203.007,222.357 202.929,222.191 202.772,222.055L206.253,222.055C206.066,222.263 205.972,222.487 205.972,222.726C205.972,222.998 206.014,223.273 206.097,223.554L207.893,230.705C207.976,231.039 208.08,231.364 208.205,231.681C208.33,231.999 208.542,232.261 208.845,232.469L205.52,232.469C205.655,232.324 205.749,232.193 205.801,232.079C205.853,231.964 205.879,231.808 205.879,231.61C205.879,231.246 205.824,230.876 205.715,230.501C205.605,230.126 205.509,229.761 205.426,229.407L201.992,229.407Z" style="fill-rule:nonzero;"/>
            </g>
        </g>
        <g transform="matrix(1.33333,0,0,1.33333,0,0)">
            <g transform="matrix(1,0,0,1,0,337.476)">
                <path d="M214.384,229.862C214.363,230.06 214.339,230.257 214.313,230.456C214.287,230.653 214.274,230.856 214.274,231.064C214.274,231.387 214.324,231.65 214.422,231.853C214.521,232.055 214.69,232.261 214.93,232.469L211.246,232.469C211.485,232.293 211.673,232.108 211.808,231.916C211.943,231.722 212.047,231.52 212.12,231.306C212.193,231.093 212.243,230.867 212.269,230.628C212.294,230.388 212.323,230.132 212.354,229.862L213.01,223.618L212.104,223.618C211.605,223.618 211.184,223.691 210.84,223.836C210.497,223.982 210.143,224.226 209.779,224.57L210.325,222.055L218.036,222.055L218.052,224.569C217.75,224.206 217.438,223.956 217.115,223.821C216.792,223.685 216.397,223.618 215.929,223.618L215.039,223.618L214.384,229.862Z" style="fill-rule:nonzero;"/>
            </g>
        </g>
        <g transform="matrix(1.33333,0,0,1.33333,0,0)">
            <g transform="matrix(1,0,0,1,0,337.477)">
                <path d="M225.229,226.379C225.229,226.067 225.204,225.74 225.151,225.396C225.1,225.052 225,224.741 224.855,224.46C224.709,224.178 224.515,223.947 224.27,223.765C224.026,223.583 223.706,223.492 223.311,223.492C222.739,223.492 222.276,223.656 221.922,223.983C221.569,224.311 221.291,224.714 221.088,225.193C220.885,225.671 220.748,226.187 220.674,226.739C220.602,227.29 220.565,227.784 220.565,228.221C220.565,228.544 220.597,228.875 220.659,229.212C220.721,229.55 220.828,229.852 220.979,230.118C221.129,230.383 221.333,230.602 221.587,230.773C221.842,230.945 222.167,231.031 222.562,231.031C223.103,231.031 223.547,230.864 223.896,230.532C224.244,230.198 224.517,229.793 224.715,229.314C224.912,228.835 225.047,228.328 225.12,227.792C225.193,227.256 225.229,226.786 225.229,226.379M227.433,226.223C227.433,227.003 227.331,227.779 227.128,228.549C226.925,229.32 226.613,230.014 226.191,230.634C225.77,231.253 225.237,231.752 224.591,232.133C223.946,232.512 223.186,232.703 222.312,232.703C221.646,232.703 221.063,232.59 220.563,232.367C220.064,232.143 219.65,231.834 219.322,231.438C218.995,231.043 218.75,230.574 218.588,230.033C218.427,229.492 218.347,228.903 218.347,228.268C218.347,227.467 218.451,226.681 218.659,225.911C218.867,225.14 219.187,224.451 219.619,223.842C220.051,223.233 220.595,222.744 221.25,222.375C221.906,222.004 222.676,221.82 223.561,221.82C224.216,221.82 224.787,221.934 225.271,222.164C225.754,222.392 226.155,222.708 226.472,223.108C226.79,223.508 227.029,223.975 227.19,224.505C227.352,225.037 227.433,225.609 227.433,226.223" style="fill-rule:nonzero;"/>
            </g>
        </g>
        <g transform="matrix(1.33333,0,0,1.33333,0,0)">
            <g transform="matrix(1,0,0,1,0,337.476)">
                <path d="M232.165,226.547C232.513,226.532 232.833,226.469 233.125,226.36C233.416,226.251 233.658,226.082 233.85,225.852C234.043,225.623 234.139,225.3 234.139,224.883C234.139,224.602 234.09,224.376 233.991,224.204C233.892,224.032 233.759,223.894 233.593,223.79C233.426,223.685 233.234,223.615 233.015,223.579C232.797,223.543 232.568,223.524 232.329,223.524L231.501,223.524L231.173,226.571C231.486,226.571 231.816,226.563 232.165,226.547M230.83,229.865C230.809,230.062 230.788,230.259 230.768,230.458C230.747,230.655 230.736,230.858 230.736,231.066C230.736,231.388 230.786,231.65 230.885,231.853C230.983,232.056 231.153,232.261 231.392,232.469L227.692,232.469C227.932,232.293 228.119,232.108 228.254,231.916C228.39,231.722 228.494,231.519 228.567,231.306C228.639,231.092 228.689,230.867 228.715,230.627C228.741,230.387 228.77,230.132 228.801,229.862L229.347,224.678C229.368,224.47 229.389,224.267 229.41,224.07C229.43,223.872 229.441,223.669 229.441,223.461C229.441,223.148 229.391,222.888 229.292,222.679C229.194,222.471 229.024,222.263 228.785,222.055L233.078,222.055C233.494,222.055 233.897,222.097 234.288,222.18C234.678,222.263 235.027,222.407 235.334,222.61C235.642,222.813 235.886,223.079 236.069,223.407C236.251,223.735 236.342,224.144 236.342,224.633C236.342,225.394 236.131,225.988 235.709,226.415C235.288,226.841 234.723,227.133 234.014,227.29C234.41,227.425 234.72,227.625 234.944,227.89C235.167,228.156 235.347,228.452 235.483,228.78C235.618,229.107 235.728,229.456 235.811,229.825C235.894,230.194 235.996,230.547 236.116,230.886C236.235,231.224 236.392,231.533 236.584,231.814C236.777,232.095 237.05,232.313 237.404,232.469L233.889,232.469C234.004,232.386 234.077,232.285 234.108,232.166C234.139,232.045 234.155,231.913 234.155,231.767C234.155,231.57 234.134,231.359 234.092,231.135C234.051,230.912 233.996,230.686 233.928,230.458C233.861,230.228 233.786,230.007 233.702,229.795C233.619,229.582 233.536,229.391 233.453,229.225C233.317,228.955 233.166,228.742 233,228.586C232.833,228.429 232.648,228.31 232.445,228.227C232.243,228.144 232.024,228.089 231.79,228.063C231.556,228.037 231.298,228.024 231.017,228.024L230.83,229.865Z" style="fill-rule:nonzero;"/>
            </g>
        </g>
        <g transform="matrix(1.33333,0,0,1.33333,0,0)">
            <g transform="matrix(1,0,0,1,0,337.399)">
                <path d="M244.298,225.052C244.09,224.625 243.797,224.272 243.417,223.991C243.038,223.71 242.604,223.57 242.116,223.57C241.928,223.57 241.749,223.593 241.578,223.64C241.406,223.687 241.25,223.76 241.11,223.859C240.969,223.957 240.855,224.08 240.767,224.225C240.678,224.372 240.629,224.543 240.619,224.741C240.619,225.022 240.712,225.266 240.899,225.474C241.086,225.683 241.323,225.88 241.609,226.068C241.895,226.255 242.201,226.445 242.529,226.637C242.856,226.83 243.163,227.051 243.449,227.301C243.735,227.551 243.971,227.842 244.158,228.175C244.345,228.508 244.439,228.904 244.439,229.362C244.439,229.882 244.34,230.353 244.142,230.775C243.944,231.196 243.673,231.555 243.33,231.852C242.986,232.149 242.59,232.377 242.143,232.538C241.695,232.7 241.221,232.781 240.722,232.781C240.482,232.781 240.241,232.76 239.996,232.718C239.751,232.676 239.522,232.632 239.309,232.585C239.096,232.538 238.906,232.495 238.739,232.453C238.573,232.412 238.448,232.39 238.365,232.39C238.271,232.39 238.19,232.412 238.123,232.453C238.055,232.495 237.996,232.551 237.943,232.624L238.037,229.221C238.172,229.47 238.333,229.709 238.521,229.939C238.708,230.167 238.914,230.368 239.137,230.539C239.361,230.711 239.608,230.849 239.879,230.953C240.149,231.057 240.436,231.109 240.737,231.109C241.185,231.109 241.562,230.981 241.869,230.726C242.176,230.471 242.33,230.11 242.33,229.641C242.33,229.371 242.236,229.131 242.049,228.923C241.862,228.715 241.625,228.52 241.339,228.337C241.053,228.156 240.744,227.968 240.412,227.776C240.079,227.583 239.77,227.368 239.484,227.127C239.198,226.888 238.961,226.613 238.774,226.3C238.587,225.989 238.494,225.619 238.494,225.192C238.494,224.703 238.595,224.255 238.798,223.849C239,223.444 239.271,223.095 239.609,222.803C239.948,222.512 240.335,222.288 240.772,222.132C241.209,221.976 241.662,221.898 242.129,221.898C242.421,221.898 242.707,221.932 242.988,221.999C243.269,222.067 243.555,222.101 243.846,222.101C243.971,222.101 244.083,222.075 244.182,222.023C244.28,221.971 244.372,221.903 244.455,221.82L244.298,225.052Z" style="fill-rule:nonzero;"/>
            </g>
        </g>
        <g transform="matrix(1.33333,0,0,1.33333,0,0)">
            <g transform="matrix(1,0,0,1,0,348.757)">
                <path d="M247.297,218.938C247.412,219.084 247.487,219.232 247.524,219.383C247.56,219.534 247.579,219.692 247.579,219.859C247.579,220.191 247.544,220.522 247.477,220.849C247.409,221.178 247.323,221.5 247.219,221.817C247.115,222.135 247,222.449 246.875,222.761C246.75,223.073 246.625,223.38 246.5,223.681L245.048,224.305C245.194,223.785 245.342,223.26 245.493,222.729C245.644,222.199 245.719,221.664 245.719,221.123C245.719,220.884 245.675,220.652 245.586,220.429C245.498,220.205 245.355,220.01 245.157,219.844L247.297,218.938Z" style="fill-rule:nonzero;"/>
            </g>
        </g>
        <g transform="matrix(1.33333,0,0,1.33333,0,0)">
            <g transform="matrix(1,0,0,1,0,337.476)">
                <path d="M256.784,230.907C257.387,230.907 257.934,230.841 258.422,230.711C258.912,230.582 259.375,230.298 259.812,229.861L259.234,232.469L252.709,232.469C252.949,232.293 253.136,232.108 253.271,231.916C253.407,231.722 253.511,231.519 253.583,231.306C253.657,231.092 253.706,230.867 253.732,230.627C253.758,230.387 253.787,230.132 253.818,229.862L254.364,224.678C254.385,224.47 254.406,224.267 254.427,224.07C254.447,223.872 254.458,223.669 254.458,223.461C254.458,223.148 254.409,222.888 254.31,222.679C254.21,222.471 254.042,222.263 253.802,222.055L257.501,222.055C257.242,222.243 257.043,222.43 256.909,222.617C256.773,222.804 256.672,223.003 256.604,223.211C256.537,223.419 256.492,223.642 256.471,223.881C256.451,224.121 256.424,224.386 256.394,224.678L255.738,230.907L256.784,230.907Z" style="fill-rule:nonzero;"/>
            </g>
        </g>
        <g transform="matrix(1.33333,0,0,1.33333,0,0)">
            <g transform="matrix(1,0,0,1,0,337.476)">
                <path d="M264.103,230.907C264.707,230.907 265.253,230.841 265.742,230.711C266.231,230.582 266.694,230.298 267.131,229.861L266.554,232.469L260.029,232.469C260.268,232.293 260.456,232.108 260.591,231.916C260.726,231.722 260.83,231.519 260.903,231.306C260.976,231.092 261.025,230.867 261.051,230.627C261.077,230.387 261.106,230.132 261.137,229.862L261.684,224.678C261.704,224.47 261.725,224.267 261.746,224.07C261.767,223.872 261.777,223.669 261.777,223.461C261.777,223.148 261.728,222.888 261.629,222.679C261.53,222.471 261.361,222.263 261.122,222.055L264.821,222.055C264.561,222.243 264.363,222.43 264.228,222.617C264.092,222.804 263.991,223.003 263.923,223.211C263.856,223.419 263.812,223.642 263.791,223.881C263.77,224.121 263.744,224.386 263.713,224.678L263.057,230.907L264.103,230.907Z" style="fill-rule:nonzero;"/>
            </g>
        </g>
        <g transform="matrix(1.33333,0,0,1.33333,0,0)">
            <g transform="matrix(1,0,0,1,0,337.555)">
                <path d="M275.202,224.693C275.036,224.298 274.812,223.986 274.531,223.757C274.25,223.528 273.88,223.414 273.422,223.414C272.85,223.414 272.358,223.559 271.947,223.851C271.536,224.142 271.201,224.511 270.94,224.959C270.68,225.407 270.491,225.895 270.371,226.426C270.251,226.957 270.191,227.466 270.191,227.956C270.191,228.341 270.236,228.714 270.324,229.072C270.413,229.431 270.55,229.751 270.738,230.032C270.925,230.313 271.169,230.537 271.471,230.703C271.773,230.87 272.137,230.953 272.564,230.953C273.116,230.953 273.576,230.823 273.945,230.563C274.315,230.302 274.635,229.949 274.905,229.502L274.343,232.797C274.271,232.714 274.19,232.643 274.102,232.586C274.013,232.528 273.912,232.5 273.797,232.5C273.506,232.5 273.217,232.52 272.931,232.562C272.645,232.604 272.356,232.625 272.064,232.625C271.409,232.625 270.829,232.5 270.324,232.25C269.819,232.001 269.395,231.665 269.051,231.243C268.707,230.821 268.447,230.332 268.27,229.775C268.092,229.218 268.004,228.628 268.004,228.003C268.004,227.243 268.126,226.489 268.371,225.739C268.616,224.99 268.965,224.318 269.418,223.725C269.871,223.132 270.428,222.653 271.089,222.289C271.75,221.924 272.491,221.742 273.313,221.742C273.583,221.742 273.844,221.765 274.094,221.812C274.343,221.859 274.604,221.882 274.874,221.882C275.093,221.882 275.306,221.804 275.514,221.648L275.202,224.693Z" style="fill-rule:nonzero;"/>
            </g>
        </g>
    </g>
</svg>
