<?xml version="1.0" encoding="UTF-8" standalone="no"?>
<!DOCTYPE svg PUBLIC "-//W3C//DTD SVG 1.1//EN" "http://www.w3.org/Graphics/SVG/1.1/DTD/svg11.dtd">
<svg width="100%" height="100%" viewBox="0 0 669 144" version="1.1" xmlns="http://www.w3.org/2000/svg" xmlns:xlink="http://www.w3.org/1999/xlink" xml:space="preserve" xmlns:serif="http://www.serif.com/" style="fill-rule:evenodd;clip-rule:evenodd;">
    <g transform="matrix(1,0,0,1,-74.9531,-192.489)">
        <g transform="matrix(1.33333,0,0,1.33333,0,0)">
            <g transform="matrix(1,0,0,1,388.425,205.001)">
                <path d="M0,29.475L-302.181,29.475L-292.595,0L9.825,0" style="fill:rgb(24,8,90);fill-rule:nonzero;stroke:white;stroke-width:2px;"/>
            </g>
        </g>
        <g transform="matrix(1.33333,0,0,1.33333,0,0)">
            <g transform="matrix(1,0,0,1,388.904,207.397)">
                <path d="M0,23.963L-298.347,23.963L-290.918,0L8.146,0" style="fill:rgb(24,8,90);fill-rule:nonzero;stroke:white;stroke-width:0.75px;stroke-linejoin:round;stroke-miterlimit:2;"/>
            </g>
        </g>
        <g transform="matrix(1.33333,0,0,1.33333,0,0)">
            <g transform="matrix(1,0,0,1,523.686,234.715)">
                <path d="M0,-29.715L26.84,-29.715C27.428,-29.715 30.805,-29.715 29.367,-25.641C27.93,-21.567 20.781,-2.636 20.781,-2.636C20.781,-2.636 18.821,0 16.774,0L-109.751,0L1.121,-29.715L-100.234,-29.715" style="fill:rgb(24,8,90);fill-rule:nonzero;stroke:white;stroke-width:0.75px;stroke-linejoin:round;stroke-miterlimit:2;"/>
            </g>
        </g>
        <g transform="matrix(1.33333,0,0,1.33333,0,0)">
            <g transform="matrix(-0.34077,0.940147,0.940147,0.34077,498.465,181.108)">
                <path d="M48.398,-63.413L79.751,-63.413L72.003,-42.037L13.112,33.937L48.398,-63.413Z" style="fill:rgb(24,8,90);fill-rule:nonzero;stroke:white;stroke-width:0.75px;stroke-linejoin:round;stroke-miterlimit:2;"/>
            </g>
        </g>
        <g transform="matrix(1.33333,0,0,1.33333,0,0)">
            <g transform="matrix(1,0,0,1,424.957,205)">
                <path d="M0,0L82.913,0" style="fill:none;fill-rule:nonzero;stroke:white;stroke-width:2px;"/>
            </g>
        </g>
        <g transform="matrix(1.33333,0,0,1.33333,0,0)">
            <g transform="matrix(1,0,0,1,523.686,234.715)">
                <path d="M0,-29.715L26.84,-29.715C27.428,-29.715 30.805,-29.715 29.367,-25.641C27.93,-21.567 20.781,-2.636 20.781,-2.636C20.781,-2.636 18.821,0 16.774,0L-109.751,0" style="fill:rgb(24,8,90);fill-rule:nonzero;stroke:white;stroke-width:2px;"/>
            </g>
        </g>
        <g transform="matrix(1.33333,0,0,1.33333,0,0)">
            <g transform="matrix(1,0,0,1,424.237,232.079)">
                <path d="M0,-24.683L83.874,-24.683C83.874,-24.683 81.848,-17.254 81.607,-16.296C81.367,-15.337 80.41,-12.222 84.483,-11.743L91.192,-11.743C91.192,-11.743 93.349,-12.222 94.308,-14.618C95.267,-17.015 98.251,-24.683 98.251,-24.683L125.064,-24.683L115.266,0L-9.346,0" style="fill:rgb(24,8,90);fill-rule:nonzero;stroke:white;stroke-width:0.75px;stroke-linejoin:round;stroke-miterlimit:2;"/>
            </g>
        </g>
        <g transform="matrix(1.33333,0,0,1.33333,0,0)">
            <g transform="matrix(1,0,0,1,107.279,237.613)">
                <path d="M0,-81.693C0,-81.693 -4.763,-68.455 -5.828,-64.923C-6.613,-62.321 -4.472,-62.483 -4.472,-62.483L0.138,-62.483C2.307,-62.483 2.939,-64.325 2.939,-64.325L8.002,-80.38C9.687,-85.368 6.104,-84.991 6.104,-84.991L2.85,-84.991C0.951,-84.991 0,-81.693 0,-81.693M-38.098,-92.855L14.782,-92.855C14.782,-92.855 29.727,-93.251 27.256,-83.364C24.799,-73.534 20.476,-60.855 19.392,-59.5C18.307,-58.144 15.595,-54.89 12.341,-54.619L-8.811,-54.619L-31.59,8.837C-31.59,8.837 -32.131,11.558 -34.844,11.549L-49.759,11.549C-49.759,11.549 -51.657,11.007 -50.03,6.397C-48.403,1.786 -18.031,-82.279 -18.031,-82.279C-18.031,-82.279 -16.404,-84.719 -20.472,-84.719L-39.455,-84.719C-39.455,-84.719 -42.342,-84.718 -41.751,-86.57C-41.123,-88.538 -39.726,-92.313 -39.726,-92.313C-39.726,-92.313 -39.614,-92.983 -38.098,-92.855" style="fill:rgb(24,8,90);fill-rule:nonzero;stroke:white;stroke-width:0.75px;stroke-linejoin:round;stroke-miterlimit:2;"/>
            </g>
        </g>
        <g transform="matrix(1.33333,0,0,1.33333,0,0)">
            <g transform="matrix(1.23789,0,0,1,-36.5887,0)">
                <text x="153.804px" y="227.837px" style="font-family:'HelveticaNeue-Bold', 'Helvetica Neue';font-weight:700;font-size:24.7px;fill:white;">S</text>
            </g>
            <g transform="matrix(1.21822,0,0,1,-40.2606,0)">
                <text x="184.494px" y="227.913px" style="font-family:'Tahoma-Bold', 'Tahoma', sans-serif;font-weight:700;font-size:24.048px;fill:white;">E</text>
            </g>
            <g transform="matrix(1.18793,0,0,1,-40.4812,0)">
                <text x="215.408px" y="227.939px" style="font-family:'MyriadPro-Bold', 'Myriad Pro', sans-serif;font-weight:700;font-size:25.937px;fill:white;">V</text>
            </g>
            <g transform="matrix(1.2297,0,0,1,-54.0114,0)">
                <text x="243.354px" y="227.637px" style="font-family:'Tahoma-Bold', 'Tahoma', sans-serif;font-weight:700;font-size:23.823px;fill:white;"><tspan x="243.354px " y="227.637px ">E</tspan></text>
            </g>
            <g transform="matrix(1.37958,0,0,1,-103.813,0)">
                <text x="273.496px" y="227.94px" style="font-family:'MyriadPro-Bold', 'Myriad Pro', sans-serif;font-weight:700;font-size:25.936px;fill:white;">R</text>
            </g>
            <g transform="matrix(1.2267,0,0,1,-69.3134,0)">
                <text x="305.749px" y="227.994px" style="font-family:'MyriadPro-Bold', 'Myriad Pro', sans-serif;font-weight:700;font-size:25.716px;fill:white;">N</text>
            </g>
        </g>
        <g transform="matrix(1.33333,0,0,1.33333,0,0)">
            <g transform="matrix(1.05375,0,0,1,-24.0551,0)">
                <text x="447.543px" y="228.287px" style="font-family:'HelveticaNeue-Bold', 'Helvetica Neue';font-weight:700;font-size:24.248px;fill:white;">M</text>
            </g>
            <g transform="matrix(1.27318,0,0,1,-130.531,0)">
                <text x="477.821px" y="228.246px" style="font-family:'MyriadPro-Bold', 'Myriad Pro', sans-serif;font-weight:700;font-size:25.495px;fill:white;">D</text>
            </g>
        </g>
        <g transform="matrix(1.33333,0,0,1.33333,0,0)">
            <g transform="matrix(1,0,0,1,429.645,251.724)">
                <path d="M0,-103.619L33.432,-103.619C33.432,-103.619 37.861,-103.84 35.646,-99.854C33.432,-95.869 34.316,-96.976 30.996,-96.976L13.506,-96.976C13.506,-96.976 9.521,-96.977 7.749,-93.434C5.978,-89.891 -20.812,-13.949 -21.255,-12.621C-21.698,-11.293 -22.361,-7.086 -17.27,-7.086L-1.771,-7.086C-1.771,-7.086 1.771,-7.529 1.55,-4.208C1.328,-0.887 1.771,0.221 -2.214,0.221L-38.304,0.221C-38.304,0.221 -42.731,-2.215 -40.518,-9.3C-40.518,-9.3 -10.407,-94.983 -9.964,-96.091C-9.521,-97.198 -6.421,-102.955 0,-103.619" style="fill:rgb(24,8,90);fill-rule:nonzero;stroke:white;stroke-width:0.75px;stroke-linejoin:round;stroke-miterlimit:2;"/>
            </g>
        </g>
        <g transform="matrix(1.33333,0,0,1.33333,0,0)">
            <g transform="matrix(1,0,0,1,333.435,178.649)">
                <path d="M0,14.327C-0.682,16.597 2.98,16.773 5.25,16.547C7.52,16.32 8.398,15.009 9.08,13.192C9.762,11.376 11.578,6.155 11.805,3.431C12.031,0.706 9.08,1.614 6.355,1.388C3.633,1.161 2.375,6.172 2.375,6.172C2.375,6.172 0.68,12.057 0,14.327M-100.994,2.957C-100.994,2.957 -101.386,5.461 -101.84,7.504C-102.294,9.547 -98.694,8.859 -95.96,8.859C-93.472,8.859 -93.267,6.552 -93.009,3.594C-92.745,0.576 -93.356,0.981 -97.464,0.816C-100.072,0.712 -100.589,1.626 -100.82,2.494C-100.879,2.715 -101.052,3.883 -101.052,3.883M-192.875,12.952C-193.557,15.222 -189.895,15.398 -187.625,15.172C-185.354,14.945 -184.476,13.634 -183.794,11.817C-183.113,10.001 -181.297,4.78 -181.07,2.056C-180.843,-0.669 -183.794,0.239 -186.519,0.013C-189.243,-0.214 -190.5,4.797 -190.5,4.797C-190.5,4.797 -192.194,10.682 -192.875,12.952M-196.279,1.147C-196.279,1.147 -194.917,-3.848 -189.695,-4.074L-177.663,-4.074C-177.663,-4.074 -170.852,-2.484 -172.214,1.829L-167.447,1.829C-167.447,1.829 -157.004,-1.35 -156.096,-3.393L-149.74,-3.393C-149.74,-3.393 -154.053,7.958 -154.28,8.866C-154.507,9.774 -154.053,16.132 -149.059,11.137C-144.064,6.141 -141.113,-1.351 -140.432,-3.62L-132.94,-3.62C-132.94,-3.62 -131.124,-3.848 -132.486,-0.669C-132.486,-0.669 -136.799,10.002 -137.026,10.682C-137.253,11.363 -139.523,15.45 -133.394,14.542C-127.265,13.634 -124.995,11.818 -124.086,5.234C-124.086,5.234 -129.081,1.829 -126.811,-1.35C-124.541,-4.528 -120,-2.713 -119.546,-0.669C-119.092,1.375 -120.681,5.914 -117.276,6.141C-113.871,6.369 -112.282,6.368 -110.011,4.098C-107.741,1.829 -107.967,-1.804 -103.654,-2.258L-88.898,-2.258C-88.898,-2.258 -83.904,-1.804 -85.039,2.51C-86.174,6.823 -88.217,12.045 -91.168,12.045L-102.292,12.045C-102.292,12.045 -106.379,15.223 -100.022,15.904C-93.666,16.585 -86.628,17.04 -82.769,15.904C-78.909,14.768 -75.05,10.229 -72.099,-2.03C-72.099,-2.03 -74.142,-7.025 -69.601,-5.436C-65.061,-3.847 -70.06,-2.824 -59.159,-2.485C-51.894,-2.258 -54.164,0.693 -54.845,2.964C-55.527,5.234 -57.796,11.137 -57.796,11.137C-57.796,11.137 -58.705,17.494 -53.937,15.904C-49.169,14.314 -42.359,10.454 -41.224,5.687C-40.089,0.921 -38.955,-1.576 -34.414,-2.03C-29.873,-2.485 -21.02,-2.03 -21.02,-2.03C-21.02,-2.03 -16.5,-1.453 -16.479,0.921C-16.463,2.736 -16.025,6.822 -18.521,7.05L-23.875,7.047C-23.875,7.047 -25.787,6.823 -24.879,3.872C-23.971,0.921 -27.843,1.348 -29,1.297C-31.261,1.196 -32.615,2.664 -33.75,6.297C-34.884,9.93 -38.046,15.223 -33.279,16.131C-28.511,17.039 -17.16,16.812 -14.436,15.904C-11.711,14.996 -7.236,13.235 -5.875,8.922C-4.512,4.608 -3.988,-1.577 1.688,-1.804L16.217,-1.804C16.217,-1.804 19.955,-0.428 19.5,2.297C19.5,2.297 25.523,3.871 28.93,2.736C32.334,1.601 35.285,-2.031 39.145,-2.258C43.004,-2.485 43.686,-1.122 44.594,-0.442C44.594,-0.442 48.227,-0.895 50.496,-2.485C52.766,-4.074 59.35,-2.939 59.35,0.467C59.35,3.872 56.627,9.094 56.398,10.682C56.172,12.271 54.811,17.039 58.441,17.039C58.441,17.039 57.08,21.352 52.086,20.444C47.092,19.536 46.408,15.903 47.998,11.817C49.588,7.731 51.404,3.417 49.135,2.736C46.863,2.056 42.324,3.418 39.826,9.32C37.328,15.223 38.463,19.31 35.285,19.764L30.518,19.764C30.518,19.764 28.475,19.991 29.838,15.45C31.199,10.909 34.604,4.78 30.064,5.915C25.523,7.05 20.191,7.273 18.375,7.047C18.375,7.047 16.443,13.181 15.082,15.45C13.719,17.72 12.131,19.989 8.951,20.217L-1.264,20.217C-1.264,20.217 -7.852,17.946 -7.852,15.677C-7.852,15.677 -13.979,19.764 -19.881,19.99C-25.783,20.217 -31.458,20.445 -35.771,19.764C-40.085,19.082 -42.355,14.314 -45.988,15.677C-49.62,17.039 -53.707,19.308 -56.884,19.536C-60.062,19.764 -57.566,19.99 -57.566,19.99C-57.566,19.99 -66.192,20.443 -66.192,17.265C-66.192,14.088 -65.285,9.773 -63.921,7.05C-62.56,4.326 -61.424,0.013 -66.873,0.013C-72.322,0.013 -69.597,0.012 -70.278,2.282C-70.959,4.553 -74.824,17.266 -81.861,19.309L-105.92,19.536C-105.92,19.536 -114.547,19.989 -112.277,13.406C-110.007,6.823 -110.919,9.321 -112.736,9.094C-114.552,8.866 -119.092,9.547 -119.773,9.547C-120.455,9.547 -121.362,10.001 -123.406,12.725C-125.449,15.45 -132.033,19.082 -135.665,19.536C-139.297,19.99 -143.384,20.217 -145.654,14.768C-145.654,14.768 -146.334,14.543 -147.697,15.45C-149.059,16.357 -155.188,20.444 -158.14,18.628C-161.091,16.811 -163.134,15.223 -161.999,11.591C-160.864,7.958 -159.502,5.008 -159.502,3.872L-159.502,2.736C-159.502,2.736 -167.447,5.915 -173.123,5.461C-173.123,5.461 -176.301,13.406 -176.982,14.314C-177.664,15.223 -179.934,18.629 -182.885,18.855C-185.836,19.082 -196.733,18.855 -196.733,18.855C-196.733,18.855 -201.728,18.854 -200.366,13.406C-199.003,7.958 -196.279,1.147 -196.279,1.147" style="fill:rgb(24,8,90);fill-rule:nonzero;stroke:white;stroke-width:0.75px;stroke-linejoin:round;stroke-miterlimit:2;"/>
            </g>
        </g>
        <g transform="matrix(1.33333,0,0,1.33333,0,0)">
            <g transform="matrix(1,0,0,1,524.213,196.716)">
                <path d="M0,-6.822C-0.477,-4.759 -1.11,-3.174 0.159,-1.904C1.429,-0.634 3.649,-1.427 5.553,-1.427C7.456,-1.427 9.202,-3.174 9.52,-3.649C9.837,-4.125 11.74,-9.995 12.375,-12.534C13.01,-15.073 11.899,-16.342 10.947,-16.342C9.995,-16.342 8.092,-16.817 5.87,-16.659C3.648,-16.501 2.38,-13.486 2.38,-13.486C2.38,-13.486 0.477,-8.885 0,-6.822M-70.76,-7.615C-71.42,-5.195 -71.406,-1.816 -70.125,-1.111C-66.952,0.635 -63.145,-0.952 -62.51,-2.38C-61.875,-3.807 -59.337,-10.789 -59.337,-13.644C-59.337,-16.5 -59.813,-16.321 -64.255,-16.5C-68.222,-16.659 -68.855,-13.802 -68.855,-13.802C-68.855,-13.802 -69.808,-11.106 -70.76,-7.615M-74.092,-15.707C-74.092,-15.707 -72.822,-19.197 -67.904,-19.832C-62.134,-20.577 -57.75,-19.673 -56.64,-19.197C-56.64,-19.197 -53.466,-18.563 -52.673,-16.659C-51.88,-14.755 -49.023,-13.328 -46.168,-13.486C-43.313,-13.644 -36.649,-15.389 -36.332,-17.135C-36.015,-18.88 -36.332,-21.101 -36.332,-21.101C-36.332,-21.101 -37.442,-24.433 -34.745,-23.164C-32.048,-21.894 -33.794,-20.468 -30.779,-20.308C-27.765,-20.149 -22.529,-20.308 -22.529,-20.308C-22.529,-20.308 -16.818,-19.833 -18.404,-15.549C-19.99,-11.264 -21.576,-8.568 -21.735,-6.981C-21.895,-5.394 -21.577,-1.587 -16.817,-2.539C-12.058,-3.491 -6.188,-7.773 -5.077,-10.312C-3.966,-12.851 -2.221,-18.563 -2.221,-18.563C-2.221,-18.563 -2.063,-20.467 1.27,-20.467L15.548,-20.467C15.548,-20.467 19.832,-19.832 19.832,-16.659C19.832,-13.486 16.976,-2.856 15.865,-1.587C15.865,-1.587 13.644,1.744 11.423,1.904C9.202,2.063 -0.952,1.904 -0.952,1.904C-0.952,1.904 -2.221,2.379 -2.855,4.283C-3.49,6.188 -8.091,17.611 -8.091,17.611L-13.962,17.611C-13.962,17.611 -9.044,2.697 -8.567,1.586C-8.091,0.476 -6.662,-4.284 -10.153,-2.539C-13.645,-0.794 -15.389,0.475 -17.61,0.634C-19.832,0.793 -25.227,1.585 -26.654,0.634C-28.082,-0.317 -30.304,-2.856 -28.399,-7.299C-26.495,-11.741 -25.702,-14.755 -25.385,-15.707C-25.067,-16.659 -26.02,-17.135 -27.447,-17.294C-28.875,-17.452 -32.048,-17.294 -32.048,-17.294C-32.048,-17.294 -36.967,-11.583 -39.822,-11.106C-42.678,-10.63 -48.391,-9.837 -49.659,-10.789C-50.928,-11.741 -53.15,-11.106 -53.784,-9.044C-54.418,-6.981 -55.213,-1.903 -56.164,-0.317C-57.115,1.269 -59.07,1.89 -61.399,2.38C-64.413,3.015 -72.822,3.173 -75.52,1.904C-77.156,1.133 -78.729,-0.042 -77.582,-4.919C-75.678,-13.01 -75.361,-12.217 -74.092,-15.707" style="fill:rgb(24,8,90);fill-rule:nonzero;stroke:white;stroke-width:0.75px;stroke-linejoin:round;stroke-miterlimit:2;"/>
            </g>
        </g>
    </g>
</svg>
