<?xml version="1.0" encoding="UTF-8"?>
<svg width="116px" height="22px" viewBox="0 0 116 22" version="1.1" xmlns="http://www.w3.org/2000/svg" xmlns:xlink="http://www.w3.org/1999/xlink">
    <!-- Generator: sketchtool 55 (78076) - https://sketchapp.com -->
    <title>6C0ED0EF-0E12-478F-8988-8BA3B20F290C</title>
    <desc>Created with sketchtool.</desc>
    <g id="Mobile" stroke="none" stroke-width="1" fill="none" fill-rule="evenodd">
        <g id="Home" transform="translate(-16.000000, -21.000000)">
            <g id="Mobile-menu">
                <g id="Sediver-Logo-Copy-2">
                    <g transform="translate(16.000000, 21.000000)">
                        <rect id="Rectangle" fill="#00ABC6" x="82.9729545" y="0.84" width="12.8127273" height="3.73333333"></rect>
                        <rect id="Rectangle" fill="#00ABC6" x="82.9729545" y="17.42" width="12.8127273" height="3.73333333"></rect>
                        <polyline id="Path" fill="#00ABC6" points="94.8431818 12.5666667 82.9729545 12.5666667 82.9729545 8.84 94.8431818 8.84"></polyline>
                        <g id="Group" transform="translate(16.477273, 0.666667)">
                            <path d="M17.0572727,0.173333333 L22.5606818,0.173333333 C25.4074903,0.0450489642 28.2300922,0.75360042 30.6872727,2.21333333 C31.8033722,3.00159051 32.6890041,4.07932788 33.2511364,5.33333333 C33.915364,6.92591488 34.2280155,8.64592484 34.1672727,10.3733333 C34.226817,12.0725822 33.9139626,13.7641118 33.2511364,15.3266667 C32.6855922,16.5857621 31.8011055,17.6713053 30.6872727,18.4733333 C29.5738189,19.248557 28.3192525,19.7924084 26.9963636,20.0733333 C25.5392761,20.3934591 24.0517122,20.5499619 22.5606818,20.54 L17.0572727,20.54 L17.0572727,0.173333333 Z M21.0909091,17.3333333 L23.3384091,17.3333333 C25.0553736,17.3559296 26.7123441,16.6951003 27.9520455,15.4933333 C29.2702273,14.2933333 29.9293182,12.58 29.9688636,10.3666667 C30.0084091,8.15333333 29.2570455,6.38666667 27.9454545,5.18666667 C26.6978504,4.00132149 25.0432844,3.35340541 23.3318182,3.38 L21.0909091,3.38 L21.0909091,17.3333333 Z" id="Shape" fill="#00ABC6" fill-rule="nonzero"></path>
                            <rect id="Rectangle" fill="#004C95" x="37.2452273" y="0.173333333" width="4.03363636" height="20.34"></rect>
                            <polyline id="Path" fill="#00ABC6" points="13.1093182 3.9 0.296590909 3.9 0.296590909 0.173333333 13.1093182 0.173333333"></polyline>
                            <polyline id="Path" fill="#00ABC6" points="13.1093182 20.4866667 0.296590909 20.4866667 0.296590909 16.7533333 13.1093182 16.7533333"></polyline>
                            <polyline id="Path" fill="#00ABC6" points="12.1668182 11.9 0.296590909 11.9 0.296590909 8.17333333 12.1668182 8.17333333"></polyline>
                            <polygon id="Path" fill="#00ABC6" points="53.3006818 14.68 51.4420455 20.5066667 51.2245455 20.5066667 44.3106818 0.173333333 48.6343182 0.173333333"></polygon>
                            <polygon id="Path" fill="#00ABC6" points="52.4636364 20.5066667 56.7675 20.5066667 63.5363636 0.173333333 58.9425 0.173333333"></polygon>
                        </g>
                        <g id="Group" fill="#00ABC6">
                            <path d="M7.90909091,3.82 C7.56539686,3.81814792 7.22262678,3.85617417 6.8875,3.93333333 C6.52584009,4.01034591 6.18159637,4.15505262 5.8725,4.36 C5.54861498,4.57520373 5.28524313,4.87145792 5.10795455,5.22 C4.88258258,5.64077156 4.77330731,6.11513508 4.79159091,6.59333333 C4.781347,6.98537085 4.92330205,7.36587566 5.18704545,7.65333333 C5.47799928,7.96077945 5.81359842,8.22155406 6.18227273,8.42666667 C6.64032645,8.66909249 7.11370446,8.88066373 7.59931818,9.06 L9.15477273,9.72666667 C9.69982903,9.93241636 10.2286265,10.1797963 10.7365909,10.4666667 C11.2561915,10.7626602 11.7256751,11.1407636 12.1272727,11.5866667 C12.5383242,12.0315138 12.8725258,12.5430855 13.1159091,13.1 C13.3637383,13.817101 13.4798895,14.5739842 13.4586364,15.3333333 C13.4190909,17.4933333 12.6918939,19.0488889 11.2770455,20 C9.69817674,20.9561899 7.87551209,21.4199924 6.03727273,21.3333333 C5.17256121,21.3467337 4.30883855,21.2685297 3.46022727,21.1 C2.74181818,20.9733333 1.91136364,20.7866667 0.968863636,20.56 L1.31818182,16.9666667 C2.68137283,17.7566594 4.22239802,18.1790568 5.79340909,18.1933333 C6.61773893,18.1909142 7.42774639,17.9751835 8.14636364,17.5666667 C8.86879549,17.1950548 9.31890381,16.4397006 9.30636364,15.62 C9.31682202,15.183447 9.19742261,14.753778 8.96363636,14.3866667 C8.69479384,14.035502 8.35850552,13.7429698 7.975,13.5266667 C7.01249025,13.0202404 6.01973565,12.5749342 5.0025,12.1933333 C4.46134772,11.9696975 3.93896302,11.7021587 3.44045455,11.3933333 C2.93029624,11.1085253 2.45660684,10.7614889 2.03,10.36 C1.62338323,9.91934888 1.29355925,9.41216382 1.05454545,8.86 C0.777876579,8.19835486 0.643092708,7.48487825 0.659090909,6.76666667 C0.698636364,4.55333333 1.42583333,2.96444444 2.84068182,2 C4.25021601,1.09110315 5.89523482,0.626967287 7.56636364,0.666666667 C9.1709145,0.653342891 10.7676471,0.89403117 12.2986364,1.38 L11.9295455,4.66666667 C10.6585063,4.11645172 9.29161157,3.82859764 7.90909091,3.82" id="Path"></path>
                            <path d="M99.6611364,0.84 L105.962045,0.84 C108.354545,0.84 110.575682,1.17333333 112.210227,2.17333333 C113.686591,3.1 114.629091,4.61333333 114.629091,6.94666667 C114.629091,9.56 112.697955,11.6933333 110.015455,12.5666667 L115.677045,21.16 L111.109545,21.16 L106.027955,13.16 L103.714545,13.16 L103.714545,21.1733333 L99.6413636,21.1733333 L99.6611364,0.84 Z M106.298182,9.8 C107.24711,9.85464125 108.19591,9.69051096 109.072955,9.32 C109.83789,8.85802247 110.279266,7.99867097 110.213182,7.1 C110.213182,6.14 110.114318,5.1 109.072955,4.58 C108.027347,4.15655689 106.901527,3.97435521 105.7775,4.04666667 L103.740909,4.04666667 L103.740909,9.8 L106.298182,9.8 Z" id="Shape" fill-rule="nonzero"></path>
                        </g>
                    </g>
                </g>
            </g>
        </g>
    </g>
</svg>