<?xml version="1.0" encoding="UTF-8" standalone="no"?><!DOCTYPE svg PUBLIC "-//W3C//DTD SVG 1.1//EN" "http://www.w3.org/Graphics/SVG/1.1/DTD/svg11.dtd"><svg width="100%" height="100%" viewBox="0 0 174 50" version="1.1" xmlns="http://www.w3.org/2000/svg" xmlns:xlink="http://www.w3.org/1999/xlink" xml:space="preserve" xmlns:serif="http://www.serif.com/" style="fill-rule:evenodd;clip-rule:evenodd;stroke-linejoin:round;stroke-miterlimit:1.41421;"><g><path d="M50.063,14.519c-1.134,-0.453 -2.494,-0.566 -3.627,-0.566c-3.059,0 -5.439,1.586 -5.439,4.646c0,5.326 7.252,4.193 7.252,8.046c0,2.039 -1.926,2.719 -3.286,2.719c-1.247,0 -2.72,-0.453 -3.513,-0.793l-0.227,2.267c1.134,0.34 2.267,0.68 3.513,0.68c3.4,0 6.233,-1.474 6.233,-5.1c0,-5.553 -7.253,-4.873 -7.253,-8.046c0,-1.813 1.587,-2.266 2.947,-2.266c1.246,0 1.926,0.226 3.173,0.68l0.227,-2.267Z" style="fill:#00476d;fill-rule:nonzero;"/><path d="M55.275,23.812c0.227,-1.587 1.134,-3.4 3.287,-3.4c1.926,0 3.059,1.586 3.059,3.4l-6.346,0Zm7.933,4.533c-0.567,0.453 -2.267,1.246 -3.853,1.246c-2.153,0 -4.08,-1.7 -4.08,-4.08l8.84,0c0,-3.966 -1.36,-7.026 -5.44,-7.026c-3.513,0 -5.779,2.607 -5.779,6.233c0,4.08 2.039,6.686 6.459,6.686c2.04,0 3.06,-0.453 3.966,-0.793l0,-2.266l-0.113,0Z" style="fill:#00476d;fill-rule:nonzero;"/><path d="M66.721,31.178l2.266,0l0,-5.78c0,-3.06 1.134,-5.099 3.74,-5.099c2.04,0.113 2.606,1.586 2.606,4.419l0,6.46l2.267,0l0,-7.366c0,-3.287 -1.473,-5.327 -4.646,-5.327c-1.7,0 -3.4,0.907 -4.08,2.267l0,-1.927l-2.266,0l0,12.353l0.113,0Z" style="fill:#00476d;fill-rule:nonzero;"/><path d="M80.546,30.838c1.02,0.566 2.267,0.68 3.4,0.68c2.266,0 4.306,-1.247 4.306,-3.853c0,-3.967 -5.326,-3.287 -5.326,-5.78c0,-1.02 1.02,-1.473 2.153,-1.473c0.567,0 1.927,0.34 2.38,0.68l0.227,-2.04c-0.907,-0.227 -1.814,-0.453 -2.833,-0.453c-2.494,0 -4.42,1.246 -4.42,3.853c0,3.513 5.326,3.286 5.326,5.553c0,1.359 -1.246,1.813 -2.38,1.813c-0.68,0 -1.926,-0.34 -2.833,-0.907l0,1.927Z" style="fill:#00476d;fill-rule:nonzero;"/><path d="M92.672,24.945c0,-2.38 1.473,-4.646 3.853,-4.646c2.379,0 3.853,2.266 3.853,4.646c0,2.266 -1.247,4.646 -3.853,4.646c-2.72,0 -3.853,-2.38 -3.853,-4.646Zm-2.493,0c0,3.513 2.606,6.459 6.346,6.459c3.739,0 6.346,-2.946 6.346,-6.459c0,-3.74 -2.493,-6.46 -6.346,-6.46c-3.74,0 -6.346,2.72 -6.346,6.46Z" style="fill:#00476d;fill-rule:nonzero;"/><path d="M105.137,31.178l2.267,0l0,-5.667c0,-3.059 1.36,-5.099 3.399,-5.099c0.34,0 0.907,0 1.247,0.227l0,-2.04c-0.453,-0.114 -0.793,-0.227 -1.473,-0.227c-1.36,0 -2.607,0.907 -3.287,2.267l0,-1.927l-2.153,0l0,12.466Z" style="fill:#00476d;fill-rule:nonzero;"/></g><g><path d="M115.79,31.178l9.519,0l0,-2.154l-7.14,0l0,-14.845l-2.379,0l0,16.999Z" style="fill:#7f7f7f;fill-rule:nonzero;"/><path d="M127.915,15.992l2.606,0l0,-2.606l-2.606,0l0,2.606Zm0.113,15.186l2.267,0l0,-12.353l-2.267,0l0,12.353Z" style="fill:#7f7f7f;fill-rule:nonzero;"/><path d="M134.261,31.178l2.267,0l0,-5.78c0,-3.06 1.133,-5.099 3.739,-5.099c2.04,0.113 2.607,1.586 2.607,4.419l0,6.46l2.266,0l0,-7.366c0,-3.287 -1.473,-5.327 -4.646,-5.327c-1.7,0 -3.4,0.907 -4.08,2.267l0,-1.927l-2.266,0l0,12.353l0.113,0Z" style="fill:#7f7f7f;fill-rule:nonzero;"/><path d="M148.426,31.178l2.267,0l0,-6.346l5.553,6.346l3.286,0l-6.459,-6.913l5.666,-5.44l-3.06,0l-4.986,4.987l0,-10.879l-2.267,0l0,18.245Z" style="fill:#7f7f7f;fill-rule:nonzero;"/><path d="M163.364,15.031c-0.996,-0.58 -1.783,-1.363 -2.363,-2.349c-0.579,-0.987 -0.869,-2.069 -0.869,-3.245c0,-1.177 0.29,-2.263 0.869,-3.259c0.58,-0.995 1.367,-1.783 2.363,-2.362c0.996,-0.579 2.082,-0.869 3.258,-0.869c1.159,0 2.236,0.29 3.232,0.869c0.995,0.579 1.783,1.367 2.362,2.362c0.579,0.996 0.869,2.082 0.869,3.259c0,1.176 -0.29,2.258 -0.869,3.245c-0.579,0.986 -1.362,1.769 -2.349,2.349c-0.986,0.579 -2.068,0.869 -3.245,0.869c-1.176,0 -2.262,-0.29 -3.258,-0.869Zm6.653,-2.091c0.851,-0.869 1.276,-2.037 1.276,-3.503c0,-1.448 -0.43,-2.616 -1.29,-3.503c-0.86,-0.887 -1.987,-1.331 -3.381,-1.331c-1.43,0 -2.57,0.444 -3.421,1.331c-0.851,0.887 -1.276,2.055 -1.276,3.503c0,1.466 0.425,2.634 1.276,3.503c0.851,0.869 1.991,1.303 3.421,1.303c1.412,0 2.544,-0.434 3.395,-1.303Zm-0.666,-0.34c-0.027,0.046 -0.068,0.068 -0.122,0.068l-1.385,0c-0.108,0 -0.181,-0.054 -0.217,-0.163l-0.869,-2.498c-0.054,-0.072 -0.136,-0.109 -0.244,-0.109l-0.788,0c-0.072,0 -0.108,0.037 -0.108,0.109l0,2.471c0,0.127 -0.082,0.19 -0.245,0.19l-1.195,0c-0.126,0 -0.19,-0.054 -0.19,-0.163l0,-6.082c0,-0.109 0.046,-0.163 0.136,-0.163l2.879,0c0.778,0 1.384,0.149 1.819,0.448c0.434,0.298 0.652,0.728 0.652,1.29c0,0.416 -0.114,0.764 -0.34,1.045c-0.226,0.281 -0.511,0.484 -0.855,0.611c-0.036,0.036 -0.045,0.082 -0.027,0.136l1.113,2.661c0.018,0.054 0.014,0.104 -0.014,0.149Zm-1.805,-4.019c0.163,-0.117 0.244,-0.285 0.244,-0.502c0,-0.199 -0.081,-0.362 -0.244,-0.489c-0.163,-0.126 -0.39,-0.19 -0.679,-0.19l-1.086,0c-0.019,0 -0.046,0 -0.082,0c-0.036,0 -0.059,0.014 -0.068,0.041c-0.009,0.027 -0.013,0.059 -0.013,0.095l0,1.059c0,0.109 0.036,0.163 0.108,0.163l1.168,0c0.271,0 0.489,-0.059 0.652,-0.177Z" style="fill:#7f7f7f;fill-rule:nonzero;"/></g><g><g><path d="M3.528,4.215c5.492,-5.144 16.129,-0.087 23.888,11.246l0.174,0.349c-0.523,0.087 -0.959,0.087 -1.133,0.262l-0.785,1.569c0,0 0.436,0.349 0.175,0.785l-4.534,10.026l-0.523,-0.523c-0.261,0.435 -0.697,0.871 -1.22,1.133l1.046,0.872l-2.616,5.841c-0.348,0.697 -0.784,1.221 -1.831,1.221l-5.318,0c-0.784,0 -1.133,-0.698 -0.872,-1.308l4.272,-9.416l-3.4,-2.615l-4.359,8.543c-4.185,-6.625 -6.277,-13.774 -6.103,-19.441l11.16,9.503l3.225,2.789l0.349,0.262c0,0.174 -0.087,0.349 -0.087,0.523l0,0.087c0,0.523 0.174,1.047 0.523,1.482c0.436,0.611 1.221,1.047 2.005,1.047c1.395,0 2.529,-1.134 2.529,-2.529c0,-1.395 -1.134,-2.528 -2.529,-2.528c-0.348,0 -0.697,0.087 -1.046,0.262l-0.785,-0.785c1.047,-2.267 1.744,-3.836 1.744,-3.923c0.175,-0.349 0.785,-0.611 0.785,-0.611l0.784,-1.569c0,0 -0.261,-0.697 -0.348,-0.697c-1.395,-0.698 -3.749,-0.611 -3.749,-0.611l-2.267,4.36l-11.508,-11.683c0.523,-1.569 1.308,-2.877 2.354,-3.923Z" style="fill:#7f7f7f;fill-rule:nonzero;"/><path d="M29.944,19.733c4.185,7.847 5.58,16.042 3.836,21.447l-9.067,-9.154l5.231,-12.293Z" style="fill:#7f7f7f;fill-rule:nonzero;"/></g><path d="M3.528,4.215c5.492,-5.144 16.129,-0.087 23.888,11.246l0.174,0.349c-0.523,0.087 -0.959,0.087 -1.133,0.262l-0.785,1.569c0,0 0.436,0.349 0.175,0.785l-4.534,10.026l-0.523,-0.523c-0.261,0.435 -0.697,0.871 -1.22,1.133l1.046,0.872l-2.616,5.841c-0.348,0.697 -0.784,1.221 -1.831,1.221l-5.318,0c-0.784,0 -1.133,-0.698 -0.872,-1.308l4.272,-9.416l-3.4,-2.615l-4.359,8.543c-4.185,-6.625 -6.277,-13.774 -6.103,-19.441l11.16,9.503l3.225,2.789l0.349,0.262c0,0.174 -0.087,0.349 -0.087,0.523l0,0.087c0,0.523 0.174,1.047 0.523,1.482c0.436,0.611 1.221,1.047 2.005,1.047c1.395,0 2.529,-1.134 2.529,-2.529c0,-1.395 -1.134,-2.528 -2.529,-2.528c-0.348,0 -0.697,0.087 -1.046,0.262l-0.785,-0.785c1.047,-2.267 1.744,-3.836 1.744,-3.923c0.175,-0.349 0.785,-0.611 0.785,-0.611l0.784,-1.569c0,0 -0.261,-0.697 -0.348,-0.697c-1.395,-0.698 -3.749,-0.611 -3.749,-0.611l-2.267,4.36l-11.508,-11.683c0.523,-1.569 1.308,-2.877 2.354,-3.923Z" style="fill:#00476d;fill-rule:nonzero;"/><path d="M15.21,42.488l4.011,0c0.959,0 1.482,-0.523 1.831,-1.221l3.225,-8.108l9.503,8.108c-0.523,1.57 -1.307,2.878 -2.441,3.924c-2.964,2.702 -8.805,3.138 -16.129,-2.703" style="fill:#7f7f7f;fill-rule:nonzero;"/></g></svg>